G04 #@! TF.FileFunction,Copper,L1,Top,Signal*
%FSLAX46Y46*%
G04 Gerber Fmt 4.6, Leading zero omitted, Abs format (unit mm)*
G04 Created by KiCad (PCBNEW 4.0.6) date 10/19/17 19:30:53*
%MOMM*%
%LPD*%
G01*
G04 APERTURE LIST*
%ADD10C,0.100000*%
%ADD11C,0.500000*%
%ADD12C,2.400000*%
%ADD13C,2.000000*%
%ADD14R,1.600000X1.600000*%
%ADD15O,1.600000X1.600000*%
%ADD16R,1.700000X1.700000*%
%ADD17O,1.700000X1.700000*%
%ADD18R,2.500000X2.500000*%
%ADD19C,2.500000*%
%ADD20R,1.800000X1.800000*%
%ADD21O,1.800000X1.800000*%
%ADD22R,0.550000X1.500000*%
%ADD23R,1.500000X0.550000*%
%ADD24C,1.000000*%
%ADD25O,4.000000X2.500000*%
%ADD26R,3.500000X3.500000*%
%ADD27C,1.600000*%
%ADD28R,1.000000X1.000000*%
%ADD29C,1.800000*%
%ADD30R,1.700000X2.000000*%
%ADD31R,2.000000X1.700000*%
%ADD32C,0.450000*%
%ADD33C,0.800000*%
%ADD34C,4.000000*%
%ADD35C,2.000000*%
G04 APERTURE END LIST*
D10*
D11*
X119642857Y-125857143D02*
X120214286Y-125857143D01*
X120500000Y-126000000D01*
X120785714Y-126285714D01*
X120928572Y-126857143D01*
X120928572Y-127857143D01*
X120785714Y-128428571D01*
X120500000Y-128714286D01*
X120214286Y-128857143D01*
X119642857Y-128857143D01*
X119357143Y-128714286D01*
X119071429Y-128428571D01*
X118928572Y-127857143D01*
X118928572Y-126857143D01*
X119071429Y-126285714D01*
X119357143Y-126000000D01*
X119642857Y-125857143D01*
X123214286Y-127285714D02*
X122214286Y-127285714D01*
X122214286Y-128857143D02*
X122214286Y-125857143D01*
X123642857Y-125857143D01*
X125785715Y-127285714D02*
X124785715Y-127285714D01*
X124785715Y-128857143D02*
X124785715Y-125857143D01*
X126214286Y-125857143D01*
X110542857Y-125957143D02*
X111114286Y-125957143D01*
X111400000Y-126100000D01*
X111685714Y-126385714D01*
X111828572Y-126957143D01*
X111828572Y-127957143D01*
X111685714Y-128528571D01*
X111400000Y-128814286D01*
X111114286Y-128957143D01*
X110542857Y-128957143D01*
X110257143Y-128814286D01*
X109971429Y-128528571D01*
X109828572Y-127957143D01*
X109828572Y-126957143D01*
X109971429Y-126385714D01*
X110257143Y-126100000D01*
X110542857Y-125957143D01*
X113114286Y-128957143D02*
X113114286Y-125957143D01*
X114828571Y-128957143D01*
X114828571Y-125957143D01*
X100142858Y-129357143D02*
X100142858Y-126357143D01*
X101142858Y-128500000D01*
X102142858Y-126357143D01*
X102142858Y-129357143D01*
X103428572Y-128500000D02*
X104857143Y-128500000D01*
X103142857Y-129357143D02*
X104142857Y-126357143D01*
X105142857Y-129357143D01*
X106142858Y-129357143D02*
X106142858Y-126357143D01*
X107857143Y-129357143D01*
X107857143Y-126357143D01*
X89000000Y-126357143D02*
X89714286Y-129357143D01*
X90285715Y-127214286D01*
X90857143Y-129357143D01*
X91571429Y-126357143D01*
X92714286Y-129357143D02*
X92714286Y-127357143D01*
X92714286Y-126357143D02*
X92571429Y-126500000D01*
X92714286Y-126642857D01*
X92857143Y-126500000D01*
X92714286Y-126357143D01*
X92714286Y-126642857D01*
X95142857Y-127785714D02*
X94142857Y-127785714D01*
X94142857Y-129357143D02*
X94142857Y-126357143D01*
X95571428Y-126357143D01*
X96714286Y-129357143D02*
X96714286Y-127357143D01*
X96714286Y-126357143D02*
X96571429Y-126500000D01*
X96714286Y-126642857D01*
X96857143Y-126500000D01*
X96714286Y-126357143D01*
X96714286Y-126642857D01*
D12*
X135763000Y-87630000D03*
X135763000Y-72630000D03*
D13*
X121539000Y-85217000D03*
X121539000Y-75217000D03*
D12*
X100076000Y-69977000D03*
X115076000Y-69977000D03*
D14*
X211582000Y-94107000D03*
D15*
X211582000Y-99187000D03*
D14*
X211582000Y-115189000D03*
D15*
X211582000Y-120269000D03*
D16*
X240030000Y-123952000D03*
D17*
X240030000Y-126492000D03*
X240030000Y-129032000D03*
X240030000Y-131572000D03*
X240030000Y-134112000D03*
X240030000Y-136652000D03*
D18*
X91000000Y-56000000D03*
D19*
X91000000Y-61000000D03*
D20*
X198501000Y-60960000D03*
D21*
X198501000Y-58420000D03*
X198501000Y-55880000D03*
D20*
X198628000Y-78232000D03*
D21*
X198628000Y-75692000D03*
X198628000Y-73152000D03*
D20*
X174244000Y-60960000D03*
D21*
X174244000Y-58420000D03*
X174244000Y-55880000D03*
D20*
X174244000Y-78232000D03*
D21*
X174244000Y-75692000D03*
X174244000Y-73152000D03*
D22*
X208916000Y-139573000D03*
X209716000Y-139573000D03*
X210516000Y-139573000D03*
X211316000Y-139573000D03*
X212116000Y-139573000D03*
X212916000Y-139573000D03*
X213716000Y-139573000D03*
X214516000Y-139573000D03*
X215316000Y-139573000D03*
X216116000Y-139573000D03*
X216916000Y-139573000D03*
D23*
X218616000Y-137873000D03*
X218616000Y-137073000D03*
X218616000Y-136273000D03*
X218616000Y-135473000D03*
X218616000Y-134673000D03*
X218616000Y-133873000D03*
X218616000Y-133073000D03*
X218616000Y-132273000D03*
X218616000Y-131473000D03*
X218616000Y-130673000D03*
X218616000Y-129873000D03*
D22*
X216916000Y-128173000D03*
X216116000Y-128173000D03*
X215316000Y-128173000D03*
X214516000Y-128173000D03*
X213716000Y-128173000D03*
X212916000Y-128173000D03*
X212116000Y-128173000D03*
X211316000Y-128173000D03*
X210516000Y-128173000D03*
X209716000Y-128173000D03*
X208916000Y-128173000D03*
D23*
X207416000Y-129873000D03*
X207416000Y-130673000D03*
X207416000Y-131473000D03*
X207416000Y-132273000D03*
X207416000Y-133073000D03*
X207416000Y-133873000D03*
X207416000Y-134673000D03*
X207416000Y-135473000D03*
X207416000Y-136273000D03*
X207416000Y-137073000D03*
X207416000Y-137873000D03*
D14*
X196596000Y-102870000D03*
D15*
X188976000Y-87630000D03*
X196596000Y-100330000D03*
X188976000Y-90170000D03*
X196596000Y-97790000D03*
X188976000Y-92710000D03*
X196596000Y-95250000D03*
X188976000Y-95250000D03*
X196596000Y-92710000D03*
X188976000Y-97790000D03*
X196596000Y-90170000D03*
X188976000Y-100330000D03*
X196596000Y-87630000D03*
X188976000Y-102870000D03*
D14*
X196596000Y-123698000D03*
D15*
X188976000Y-108458000D03*
X196596000Y-121158000D03*
X188976000Y-110998000D03*
X196596000Y-118618000D03*
X188976000Y-113538000D03*
X196596000Y-116078000D03*
X188976000Y-116078000D03*
X196596000Y-113538000D03*
X188976000Y-118618000D03*
X196596000Y-110998000D03*
X188976000Y-121158000D03*
X196596000Y-108458000D03*
X188976000Y-123698000D03*
D24*
X231140000Y-89232000D03*
X231140000Y-91772000D03*
X231140000Y-94312000D03*
X232000000Y-106000000D03*
X232000000Y-108540000D03*
X232000000Y-111080000D03*
D19*
X230000000Y-66000000D03*
X230000000Y-61300000D03*
X230000000Y-56600000D03*
X242700000Y-63840000D03*
X242700000Y-58760000D03*
D25*
X161954000Y-53213000D03*
X139954000Y-53213000D03*
D26*
X233000000Y-77000000D03*
X239000000Y-77000000D03*
X236000000Y-72300000D03*
D27*
X105000000Y-82000000D03*
X110000000Y-82000000D03*
D19*
X97000000Y-131700000D03*
X101700000Y-131700000D03*
X106400000Y-131700000D03*
X99160000Y-144400000D03*
X104240000Y-144400000D03*
X111800000Y-131700000D03*
X116500000Y-131700000D03*
X121200000Y-131700000D03*
X113960000Y-144400000D03*
X119040000Y-144400000D03*
D28*
X129700000Y-126100000D03*
D24*
X131700000Y-126100000D03*
X133700000Y-126100000D03*
X135700000Y-126100000D03*
X137700000Y-126100000D03*
X139700000Y-126100000D03*
X141700000Y-126100000D03*
X143700000Y-126100000D03*
X145700000Y-126100000D03*
X147700000Y-126100000D03*
X147700000Y-104100000D03*
X145700000Y-104100000D03*
X143700000Y-104100000D03*
X141700000Y-104100000D03*
X139700000Y-104100000D03*
X137700000Y-104100000D03*
X135700000Y-104100000D03*
X133700000Y-104100000D03*
X131700000Y-104100000D03*
X129700000Y-104100000D03*
D20*
X225900000Y-142300000D03*
D29*
X223360000Y-142300000D03*
D20*
X233300000Y-142100000D03*
D29*
X230760000Y-142100000D03*
D30*
X220600000Y-144000000D03*
X220600000Y-140000000D03*
D31*
X230800000Y-138000000D03*
X226800000Y-138000000D03*
D19*
X214000000Y-143500000D03*
X217805000Y-125730000D03*
X207000000Y-144500000D03*
X205994000Y-128016000D03*
X201676000Y-128524000D03*
X201676000Y-114046000D03*
X200660000Y-102870000D03*
X204724000Y-105918000D03*
X190500000Y-129286000D03*
X132500000Y-136100000D03*
X128700000Y-141800000D03*
X181610000Y-118618000D03*
X181610000Y-94742000D03*
X179324000Y-113538000D03*
X179324000Y-100330000D03*
X140100000Y-137500000D03*
X201422000Y-93440000D03*
X200914000Y-85852000D03*
X102000000Y-121000000D03*
X116500000Y-126800000D03*
D32*
X125800000Y-102300000D02*
X125800000Y-102500000D01*
X118200000Y-110100000D02*
X118200000Y-117300000D01*
X125800000Y-102500000D02*
X118200000Y-110100000D01*
D33*
X232696000Y-99519000D02*
X232696000Y-99424000D01*
D32*
X213716000Y-141326000D02*
X213716000Y-143216000D01*
X213716000Y-141326000D02*
X213716000Y-139573000D01*
X213716000Y-143216000D02*
X214000000Y-143500000D01*
D33*
X217805000Y-125730000D02*
X217805000Y-125603000D01*
X214122000Y-125603000D02*
X217805000Y-125603000D01*
D32*
X212916000Y-128173000D02*
X212916000Y-126809000D01*
X212916000Y-126809000D02*
X214122000Y-125603000D01*
D33*
X210514000Y-141986000D02*
X212217000Y-141986000D01*
X208200000Y-144300000D02*
X210514000Y-141986000D01*
X207200000Y-144300000D02*
X208200000Y-144300000D01*
X207000000Y-144500000D02*
X207200000Y-144300000D01*
D34*
X177652000Y-73152000D02*
X194448000Y-73152000D01*
D35*
X198628000Y-73152000D02*
X194448000Y-73152000D01*
X194448000Y-73152000D02*
X194400000Y-73200000D01*
X174244000Y-73152000D02*
X177652000Y-73152000D01*
X177652000Y-73152000D02*
X177700000Y-73200000D01*
D32*
X212116000Y-128173000D02*
X212116000Y-126772000D01*
X212116000Y-126772000D02*
X211328000Y-125984000D01*
X211328000Y-125984000D02*
X210820000Y-125476000D01*
X212916000Y-139573000D02*
X212916000Y-141287000D01*
X212916000Y-141287000D02*
X212217000Y-141986000D01*
X212217000Y-141986000D02*
X212090000Y-142113000D01*
D33*
X239998000Y-129000000D02*
X240030000Y-129032000D01*
X208534000Y-125476000D02*
X205994000Y-128016000D01*
X210820000Y-125476000D02*
X208534000Y-125476000D01*
D35*
X174244000Y-58420000D02*
X177580000Y-58420000D01*
D34*
X204420000Y-52420000D02*
X204420000Y-58420000D01*
X203000000Y-51000000D02*
X204420000Y-52420000D01*
X191000000Y-51000000D02*
X203000000Y-51000000D01*
X186000000Y-56000000D02*
X191000000Y-51000000D01*
X180000000Y-56000000D02*
X186000000Y-56000000D01*
D35*
X177580000Y-58420000D02*
X180000000Y-56000000D01*
X198501000Y-58420000D02*
X204420000Y-58420000D01*
D34*
X207300000Y-61300000D02*
X230000000Y-61300000D01*
X204420000Y-58420000D02*
X207300000Y-61300000D01*
D35*
X201676000Y-114046000D02*
X201676000Y-128524000D01*
D33*
X220726000Y-132080000D02*
X224536000Y-132080000D01*
X224536000Y-132080000D02*
X226949000Y-129667000D01*
X226949000Y-129667000D02*
X226949000Y-124460000D01*
X226949000Y-124460000D02*
X230378000Y-121031000D01*
X230378000Y-121031000D02*
X237109000Y-121031000D01*
X237109000Y-121031000D02*
X240030000Y-123952000D01*
D32*
X218616000Y-133073000D02*
X219733000Y-133073000D01*
X219733000Y-133073000D02*
X220726000Y-132080000D01*
D33*
X220711000Y-133873000D02*
X227823000Y-133873000D01*
X227823000Y-133873000D02*
X229235000Y-132461000D01*
X229235000Y-132461000D02*
X236220000Y-132461000D01*
X236220000Y-132461000D02*
X237109000Y-131572000D01*
X237109000Y-131572000D02*
X240030000Y-131572000D01*
D32*
X218616000Y-133873000D02*
X220711000Y-133873000D01*
X220711000Y-133873000D02*
X220726000Y-133858000D01*
D33*
X220726000Y-135636000D02*
X236093000Y-135636000D01*
X236093000Y-135636000D02*
X237617000Y-134112000D01*
D32*
X219763000Y-134673000D02*
X220726000Y-135636000D01*
D33*
X237617000Y-134112000D02*
X240030000Y-134112000D01*
D32*
X218616000Y-134673000D02*
X219763000Y-134673000D01*
D35*
X210693000Y-78232000D02*
X198628000Y-78232000D01*
X215392000Y-82931000D02*
X210693000Y-78232000D01*
X215392000Y-101346000D02*
X215392000Y-82931000D01*
X213868000Y-102870000D02*
X215392000Y-101346000D01*
X200660000Y-102870000D02*
X213868000Y-102870000D01*
X216281000Y-105918000D02*
X218948000Y-103251000D01*
X218948000Y-103251000D02*
X218948000Y-81026000D01*
X218948000Y-81026000D02*
X212217000Y-74295000D01*
X212217000Y-74295000D02*
X207899000Y-74295000D01*
X207899000Y-74295000D02*
X198755000Y-65151000D01*
X198755000Y-65151000D02*
X181483000Y-65151000D01*
X181483000Y-65151000D02*
X177292000Y-60960000D01*
X177292000Y-60960000D02*
X174244000Y-60960000D01*
X216281000Y-105918000D02*
X204724000Y-105918000D01*
X196596000Y-128016000D02*
X195326000Y-129286000D01*
X195326000Y-129286000D02*
X190500000Y-129286000D01*
X196596000Y-123698000D02*
X196596000Y-127889000D01*
X196596000Y-127889000D02*
X196596000Y-128016000D01*
D33*
X140000000Y-143600000D02*
X132500000Y-136100000D01*
X149500000Y-143600000D02*
X140000000Y-143600000D01*
X206400000Y-140400000D02*
X205600000Y-140400000D01*
X205600000Y-140400000D02*
X202400000Y-143600000D01*
X202400000Y-143600000D02*
X149500000Y-143600000D01*
D32*
X207227000Y-139573000D02*
X206400000Y-140400000D01*
X207227000Y-139573000D02*
X208916000Y-139573000D01*
D33*
X203100000Y-145300000D02*
X132200000Y-145300000D01*
X205900000Y-142500000D02*
X203100000Y-145300000D01*
X208600000Y-141500000D02*
X207600000Y-142500000D01*
D32*
X208700000Y-141400000D02*
X208600000Y-141500000D01*
X209716000Y-140384000D02*
X208700000Y-141400000D01*
X209716000Y-139573000D02*
X209716000Y-140384000D01*
D33*
X207600000Y-142500000D02*
X205900000Y-142500000D01*
X132200000Y-145300000D02*
X128700000Y-141800000D01*
X189484000Y-132080000D02*
X186690000Y-132080000D01*
X204343000Y-132080000D02*
X189484000Y-132080000D01*
D32*
X207416000Y-133073000D02*
X205336000Y-133073000D01*
X205336000Y-133073000D02*
X204343000Y-132080000D01*
D33*
X181610000Y-127000000D02*
X181610000Y-118618000D01*
X181610000Y-118618000D02*
X181610000Y-94742000D01*
X186690000Y-132080000D02*
X181610000Y-127000000D01*
X189293500Y-134810500D02*
X185356500Y-134810500D01*
X204406500Y-134810500D02*
X189293500Y-134810500D01*
X179324000Y-128778000D02*
X179324000Y-113538000D01*
X179324000Y-113538000D02*
X179324000Y-100330000D01*
X185356500Y-134810500D02*
X179324000Y-128778000D01*
D32*
X207416000Y-133873000D02*
X205344000Y-133873000D01*
X205344000Y-133873000D02*
X204406500Y-134810500D01*
X204406500Y-134810500D02*
X204343000Y-134874000D01*
D33*
X153500000Y-142100000D02*
X144700000Y-142100000D01*
X201700000Y-142100000D02*
X156100000Y-142100000D01*
D32*
X205927000Y-137873000D02*
X205100000Y-138700000D01*
X205927000Y-137873000D02*
X207416000Y-137873000D01*
D33*
X205100000Y-138700000D02*
X201700000Y-142100000D01*
X156100000Y-142100000D02*
X153500000Y-142100000D01*
X144700000Y-142100000D02*
X140100000Y-137500000D01*
D35*
X200914000Y-85852000D02*
X200914000Y-92932000D01*
X200914000Y-92932000D02*
X201422000Y-93440000D01*
D33*
X106000000Y-120300000D02*
X102700000Y-120300000D01*
X102700000Y-120300000D02*
X102000000Y-121000000D01*
X168300000Y-120300000D02*
X106000000Y-120300000D01*
X106000000Y-120300000D02*
X105800000Y-120300000D01*
X204300000Y-136400000D02*
X184400000Y-136400000D01*
D32*
X206027000Y-134673000D02*
X204300000Y-136400000D01*
X207416000Y-134673000D02*
X206027000Y-134673000D01*
D33*
X184400000Y-136400000D02*
X168300000Y-120300000D01*
X166600000Y-122200000D02*
X121100000Y-122200000D01*
X204100000Y-137900000D02*
X182300000Y-137900000D01*
D32*
X207416000Y-135473000D02*
X206527000Y-135473000D01*
X206527000Y-135473000D02*
X204100000Y-137900000D01*
D33*
X182300000Y-137900000D02*
X166600000Y-122200000D01*
X121100000Y-122200000D02*
X116500000Y-126800000D01*
X220600000Y-144000000D02*
X221660000Y-144000000D01*
X221660000Y-144000000D02*
X223360000Y-142300000D01*
X230760000Y-142100000D02*
X230760000Y-138040000D01*
X230760000Y-138040000D02*
X230800000Y-138000000D01*
X216700000Y-141900000D02*
X217500000Y-141900000D01*
D32*
X216116000Y-141316000D02*
X216700000Y-141900000D01*
X216116000Y-139573000D02*
X216116000Y-141316000D01*
D33*
X219400000Y-140000000D02*
X220600000Y-140000000D01*
X217500000Y-141900000D02*
X219400000Y-140000000D01*
D32*
X218616000Y-136273000D02*
X219773000Y-136273000D01*
D33*
X221000000Y-137500000D02*
X226300000Y-137500000D01*
D32*
X219773000Y-136273000D02*
X221000000Y-137500000D01*
D33*
X226300000Y-137500000D02*
X226800000Y-138000000D01*
M02*
