G04 #@! TF.FileFunction,Legend,Top*
%FSLAX46Y46*%
G04 Gerber Fmt 4.6, Leading zero omitted, Abs format (unit mm)*
G04 Created by KiCad (PCBNEW 4.0.6) date 10/19/17 19:30:53*
%MOMM*%
%LPD*%
G01*
G04 APERTURE LIST*
%ADD10C,0.100000*%
%ADD11C,0.120000*%
%ADD12C,0.150000*%
G04 APERTURE END LIST*
D10*
D11*
X133203000Y-89190000D02*
X133203000Y-71070000D01*
X138323000Y-89190000D02*
X138323000Y-71070000D01*
X133203000Y-89190000D02*
X138323000Y-89190000D01*
X133203000Y-71070000D02*
X138323000Y-71070000D01*
X118979000Y-86777000D02*
X118979000Y-73657000D01*
X124099000Y-86777000D02*
X124099000Y-73657000D01*
X118979000Y-86777000D02*
X124099000Y-86777000D01*
X118979000Y-73657000D02*
X124099000Y-73657000D01*
X98516000Y-64417000D02*
X116636000Y-64417000D01*
X98516000Y-75537000D02*
X116636000Y-75537000D01*
X98516000Y-64417000D02*
X98516000Y-75537000D01*
X116636000Y-64417000D02*
X116636000Y-75537000D01*
X211582000Y-95373371D02*
X211582000Y-98087000D01*
X212382000Y-96113667D02*
X210782000Y-96113667D01*
X211582000Y-96113667D02*
X212382000Y-97180333D01*
X212382000Y-97180333D02*
X210782000Y-97180333D01*
X210782000Y-97180333D02*
X211582000Y-96113667D01*
X212848371Y-94107000D02*
G75*
G03X212848371Y-94107000I-1266371J0D01*
G01*
X211582000Y-116455371D02*
X211582000Y-119169000D01*
X212382000Y-117195667D02*
X210782000Y-117195667D01*
X211582000Y-117195667D02*
X212382000Y-118262333D01*
X212382000Y-118262333D02*
X210782000Y-118262333D01*
X210782000Y-118262333D02*
X211582000Y-117195667D01*
X212848371Y-115189000D02*
G75*
G03X212848371Y-115189000I-1266371J0D01*
G01*
X241470000Y-122622000D02*
X241470000Y-137982000D01*
X241470000Y-137982000D02*
X244130000Y-137982000D01*
X244130000Y-137982000D02*
X244130000Y-122622000D01*
X244130000Y-122622000D02*
X241470000Y-122622000D01*
X244130000Y-123572000D02*
X250130000Y-123572000D01*
X250130000Y-123572000D02*
X250130000Y-124332000D01*
X250130000Y-124332000D02*
X244130000Y-124332000D01*
X244130000Y-123632000D02*
X250130000Y-123632000D01*
X244130000Y-123752000D02*
X250130000Y-123752000D01*
X244130000Y-123872000D02*
X250130000Y-123872000D01*
X244130000Y-123992000D02*
X250130000Y-123992000D01*
X244130000Y-124112000D02*
X250130000Y-124112000D01*
X244130000Y-124232000D02*
X250130000Y-124232000D01*
X241140000Y-123572000D02*
X241470000Y-123572000D01*
X241140000Y-124332000D02*
X241470000Y-124332000D01*
X241470000Y-125222000D02*
X244130000Y-125222000D01*
X244130000Y-126112000D02*
X250130000Y-126112000D01*
X250130000Y-126112000D02*
X250130000Y-126872000D01*
X250130000Y-126872000D02*
X244130000Y-126872000D01*
X241072929Y-126112000D02*
X241470000Y-126112000D01*
X241072929Y-126872000D02*
X241470000Y-126872000D01*
X241470000Y-127762000D02*
X244130000Y-127762000D01*
X244130000Y-128652000D02*
X250130000Y-128652000D01*
X250130000Y-128652000D02*
X250130000Y-129412000D01*
X250130000Y-129412000D02*
X244130000Y-129412000D01*
X241072929Y-128652000D02*
X241470000Y-128652000D01*
X241072929Y-129412000D02*
X241470000Y-129412000D01*
X241470000Y-130302000D02*
X244130000Y-130302000D01*
X244130000Y-131192000D02*
X250130000Y-131192000D01*
X250130000Y-131192000D02*
X250130000Y-131952000D01*
X250130000Y-131952000D02*
X244130000Y-131952000D01*
X241072929Y-131192000D02*
X241470000Y-131192000D01*
X241072929Y-131952000D02*
X241470000Y-131952000D01*
X241470000Y-132842000D02*
X244130000Y-132842000D01*
X244130000Y-133732000D02*
X250130000Y-133732000D01*
X250130000Y-133732000D02*
X250130000Y-134492000D01*
X250130000Y-134492000D02*
X244130000Y-134492000D01*
X241072929Y-133732000D02*
X241470000Y-133732000D01*
X241072929Y-134492000D02*
X241470000Y-134492000D01*
X241470000Y-135382000D02*
X244130000Y-135382000D01*
X244130000Y-136272000D02*
X250130000Y-136272000D01*
X250130000Y-136272000D02*
X250130000Y-137032000D01*
X250130000Y-137032000D02*
X244130000Y-137032000D01*
X241072929Y-136272000D02*
X241470000Y-136272000D01*
X241072929Y-137032000D02*
X241470000Y-137032000D01*
X238760000Y-123952000D02*
X238760000Y-122682000D01*
X238760000Y-122682000D02*
X240030000Y-122682000D01*
D12*
X86900000Y-58500000D02*
X86400000Y-58500000D01*
X92900000Y-61000000D02*
G75*
G03X92900000Y-61000000I-2000000J0D01*
G01*
X92900000Y-56000000D02*
G75*
G03X92900000Y-56000000I-2000000J0D01*
G01*
X88400000Y-53500000D02*
X88400000Y-63500000D01*
X93300000Y-53500000D02*
X93300000Y-63500000D01*
X86900000Y-53500000D02*
X86900000Y-63500000D01*
X86400000Y-53500000D02*
X86400000Y-63500000D01*
X86400000Y-63500000D02*
X96200000Y-63500000D01*
X96200000Y-63500000D02*
X96200000Y-53500000D01*
X96200000Y-53500000D02*
X86400000Y-53500000D01*
D11*
X195881000Y-63540000D02*
X195881000Y-53300000D01*
X200522000Y-63540000D02*
X200522000Y-53300000D01*
X195881000Y-63540000D02*
X200522000Y-63540000D01*
X195881000Y-53300000D02*
X200522000Y-53300000D01*
X197391000Y-63540000D02*
X197391000Y-53300000D01*
X195881000Y-60270000D02*
X197391000Y-60270000D01*
X195881000Y-56569000D02*
X197391000Y-56569000D01*
X196008000Y-80812000D02*
X196008000Y-70572000D01*
X200649000Y-80812000D02*
X200649000Y-70572000D01*
X196008000Y-80812000D02*
X200649000Y-80812000D01*
X196008000Y-70572000D02*
X200649000Y-70572000D01*
X197518000Y-80812000D02*
X197518000Y-70572000D01*
X196008000Y-77542000D02*
X197518000Y-77542000D01*
X196008000Y-73841000D02*
X197518000Y-73841000D01*
X171624000Y-63540000D02*
X171624000Y-53300000D01*
X176265000Y-63540000D02*
X176265000Y-53300000D01*
X171624000Y-63540000D02*
X176265000Y-63540000D01*
X171624000Y-53300000D02*
X176265000Y-53300000D01*
X173134000Y-63540000D02*
X173134000Y-53300000D01*
X171624000Y-60270000D02*
X173134000Y-60270000D01*
X171624000Y-56569000D02*
X173134000Y-56569000D01*
X171624000Y-80812000D02*
X171624000Y-70572000D01*
X176265000Y-80812000D02*
X176265000Y-70572000D01*
X171624000Y-80812000D02*
X176265000Y-80812000D01*
X171624000Y-70572000D02*
X176265000Y-70572000D01*
X173134000Y-80812000D02*
X173134000Y-70572000D01*
X171624000Y-77542000D02*
X173134000Y-77542000D01*
X171624000Y-73841000D02*
X173134000Y-73841000D01*
D12*
X209398843Y-137773000D02*
G75*
G03X209398843Y-137773000I-282843J0D01*
G01*
X208516000Y-138373000D02*
X208516000Y-129373000D01*
X208516000Y-129373000D02*
X217516000Y-129373000D01*
X217516000Y-129373000D02*
X217516000Y-138373000D01*
X217516000Y-138373000D02*
X208516000Y-138373000D01*
D11*
X191786000Y-104200000D02*
G75*
G02X193786000Y-104200000I1000000J0D01*
G01*
X193786000Y-104200000D02*
X195436000Y-104200000D01*
X195436000Y-104200000D02*
X195436000Y-86300000D01*
X195436000Y-86300000D02*
X190136000Y-86300000D01*
X190136000Y-86300000D02*
X190136000Y-104200000D01*
X190136000Y-104200000D02*
X191786000Y-104200000D01*
X191786000Y-125028000D02*
G75*
G02X193786000Y-125028000I1000000J0D01*
G01*
X193786000Y-125028000D02*
X195436000Y-125028000D01*
X195436000Y-125028000D02*
X195436000Y-107128000D01*
X195436000Y-107128000D02*
X190136000Y-107128000D01*
X190136000Y-107128000D02*
X190136000Y-125028000D01*
X190136000Y-125028000D02*
X191786000Y-125028000D01*
D12*
X229140000Y-86022000D02*
X229140000Y-97182000D01*
X229140000Y-97182000D02*
X237640000Y-97182000D01*
X237640000Y-97182000D02*
X237640000Y-86022000D01*
X237640000Y-86022000D02*
X229140000Y-86022000D01*
X230000000Y-102790000D02*
X230000000Y-113950000D01*
X230000000Y-113950000D02*
X238500000Y-113950000D01*
X238500000Y-113950000D02*
X238500000Y-102790000D01*
X238500000Y-102790000D02*
X230000000Y-102790000D01*
X227841000Y-68158000D02*
X227841000Y-54569000D01*
X227841000Y-54569000D02*
X244732000Y-54569000D01*
X244732000Y-54569000D02*
X244732000Y-68158000D01*
X244732000Y-68158000D02*
X227841000Y-68158000D01*
D11*
X144954000Y-50713000D02*
X144954000Y-48213000D01*
X144954000Y-58213000D02*
X144954000Y-55713000D01*
X156954000Y-58213000D02*
X156954000Y-55713000D01*
X156954000Y-48213000D02*
X156954000Y-50713000D01*
X146454000Y-53213000D02*
X155454000Y-53213000D01*
X146454000Y-50713000D02*
X146454000Y-55713000D01*
X155454000Y-50713000D02*
X155454000Y-55713000D01*
X160954000Y-51313000D02*
X160954000Y-50713000D01*
X140954000Y-55113000D02*
X140954000Y-55713000D01*
X140954000Y-55713000D02*
X160954000Y-55713000D01*
X160954000Y-55713000D02*
X160954000Y-55113000D01*
X160954000Y-50713000D02*
X140954000Y-50713000D01*
X140954000Y-50713000D02*
X140954000Y-51313000D01*
X162954000Y-51313000D02*
X162954000Y-48213000D01*
X138954000Y-55113000D02*
X138954000Y-58213000D01*
X138954000Y-58213000D02*
X162954000Y-58213000D01*
X162954000Y-58213000D02*
X162954000Y-55113000D01*
X162954000Y-48213000D02*
X138954000Y-48213000D01*
X138954000Y-48213000D02*
X138954000Y-51313000D01*
X238000000Y-72400000D02*
X246800000Y-72400000D01*
X246800000Y-72400000D02*
X246800000Y-81600000D01*
X232100000Y-75100000D02*
X232100000Y-72400000D01*
X232100000Y-72400000D02*
X234000000Y-72400000D01*
X246800000Y-81600000D02*
X232100000Y-81600000D01*
X232100000Y-81600000D02*
X232100000Y-79000000D01*
X103840000Y-80690000D02*
X111160000Y-80690000D01*
X103840000Y-83310000D02*
X111160000Y-83310000D01*
X103840000Y-80690000D02*
X103840000Y-83310000D01*
X111160000Y-80690000D02*
X111160000Y-83310000D01*
D12*
X94842000Y-129541000D02*
X108431000Y-129541000D01*
X108431000Y-129541000D02*
X108431000Y-146432000D01*
X108431000Y-146432000D02*
X94842000Y-146432000D01*
X94842000Y-146432000D02*
X94842000Y-129541000D01*
X109642000Y-129541000D02*
X123231000Y-129541000D01*
X123231000Y-129541000D02*
X123231000Y-146432000D01*
X123231000Y-146432000D02*
X109642000Y-146432000D01*
X109642000Y-146432000D02*
X109642000Y-129541000D01*
X120680000Y-119620000D02*
X120680000Y-110720000D01*
X128430000Y-102970000D02*
X120680000Y-110720000D01*
X128430000Y-127370000D02*
X120680000Y-119620000D01*
X155100000Y-127370000D02*
X155100000Y-102970000D01*
X155100000Y-102970000D02*
X128430000Y-102970000D01*
X128430000Y-127370000D02*
X155100000Y-127370000D01*
D11*
X222957665Y-143378608D02*
G75*
G03X226190000Y-143535516I1672335J1078608D01*
G01*
X222957665Y-141221392D02*
G75*
G02X226190000Y-141064484I1672335J-1078608D01*
G01*
X223588870Y-143379837D02*
G75*
G03X225670961Y-143380000I1041130J1079837D01*
G01*
X223588870Y-141220163D02*
G75*
G02X225670961Y-141220000I1041130J-1079837D01*
G01*
X226190000Y-143536000D02*
X226190000Y-143380000D01*
X226190000Y-141220000D02*
X226190000Y-141064000D01*
X230357665Y-143178608D02*
G75*
G03X233590000Y-143335516I1672335J1078608D01*
G01*
X230357665Y-141021392D02*
G75*
G02X233590000Y-140864484I1672335J-1078608D01*
G01*
X230988870Y-143179837D02*
G75*
G03X233070961Y-143180000I1041130J1079837D01*
G01*
X230988870Y-141020163D02*
G75*
G02X233070961Y-141020000I1041130J-1079837D01*
G01*
X233590000Y-143336000D02*
X233590000Y-143180000D01*
X233590000Y-141020000D02*
X233590000Y-140864000D01*
X221670000Y-141000000D02*
X221670000Y-143000000D01*
X219530000Y-143000000D02*
X219530000Y-141000000D01*
X227800000Y-136930000D02*
X229800000Y-136930000D01*
X229800000Y-139070000D02*
X227800000Y-139070000D01*
D12*
X132310143Y-80582381D02*
X132357762Y-80630000D01*
X132405381Y-80772857D01*
X132405381Y-80868095D01*
X132357762Y-81010953D01*
X132262524Y-81106191D01*
X132167286Y-81153810D01*
X131976810Y-81201429D01*
X131833952Y-81201429D01*
X131643476Y-81153810D01*
X131548238Y-81106191D01*
X131453000Y-81010953D01*
X131405381Y-80868095D01*
X131405381Y-80772857D01*
X131453000Y-80630000D01*
X131500619Y-80582381D01*
X131738714Y-80296667D02*
X131738714Y-79915715D01*
X132405381Y-80153810D02*
X131548238Y-80153810D01*
X131453000Y-80106191D01*
X131405381Y-80010953D01*
X131405381Y-79915715D01*
X132405381Y-79058571D02*
X132405381Y-79630000D01*
X132405381Y-79344286D02*
X131405381Y-79344286D01*
X131548238Y-79439524D01*
X131643476Y-79534762D01*
X131691095Y-79630000D01*
X118086143Y-80669381D02*
X118133762Y-80717000D01*
X118181381Y-80859857D01*
X118181381Y-80955095D01*
X118133762Y-81097953D01*
X118038524Y-81193191D01*
X117943286Y-81240810D01*
X117752810Y-81288429D01*
X117609952Y-81288429D01*
X117419476Y-81240810D01*
X117324238Y-81193191D01*
X117229000Y-81097953D01*
X117181381Y-80955095D01*
X117181381Y-80859857D01*
X117229000Y-80717000D01*
X117276619Y-80669381D01*
X117514714Y-80383667D02*
X117514714Y-80002715D01*
X118181381Y-80240810D02*
X117324238Y-80240810D01*
X117229000Y-80193191D01*
X117181381Y-80097953D01*
X117181381Y-80002715D01*
X117276619Y-79717000D02*
X117229000Y-79669381D01*
X117181381Y-79574143D01*
X117181381Y-79336047D01*
X117229000Y-79240809D01*
X117276619Y-79193190D01*
X117371857Y-79145571D01*
X117467095Y-79145571D01*
X117609952Y-79193190D01*
X118181381Y-79764619D01*
X118181381Y-79145571D01*
X107099810Y-63524143D02*
X107052191Y-63571762D01*
X106909334Y-63619381D01*
X106814096Y-63619381D01*
X106671238Y-63571762D01*
X106576000Y-63476524D01*
X106528381Y-63381286D01*
X106480762Y-63190810D01*
X106480762Y-63047952D01*
X106528381Y-62857476D01*
X106576000Y-62762238D01*
X106671238Y-62667000D01*
X106814096Y-62619381D01*
X106909334Y-62619381D01*
X107052191Y-62667000D01*
X107099810Y-62714619D01*
X107528381Y-63619381D02*
X107528381Y-62952714D01*
X107528381Y-63143190D02*
X107576000Y-63047952D01*
X107623619Y-63000333D01*
X107718857Y-62952714D01*
X107814096Y-62952714D01*
X108099810Y-62714619D02*
X108147429Y-62667000D01*
X108242667Y-62619381D01*
X108480763Y-62619381D01*
X108576001Y-62667000D01*
X108623620Y-62714619D01*
X108671239Y-62809857D01*
X108671239Y-62905095D01*
X108623620Y-63047952D01*
X108052191Y-63619381D01*
X108671239Y-63619381D01*
X214300752Y-97385095D02*
X213300752Y-97385095D01*
X213300752Y-97147000D01*
X213348371Y-97004142D01*
X213443609Y-96908904D01*
X213538847Y-96861285D01*
X213729323Y-96813666D01*
X213872181Y-96813666D01*
X214062657Y-96861285D01*
X214157895Y-96908904D01*
X214253133Y-97004142D01*
X214300752Y-97147000D01*
X214300752Y-97385095D01*
X214300752Y-95861285D02*
X214300752Y-96432714D01*
X214300752Y-96147000D02*
X213300752Y-96147000D01*
X213443609Y-96242238D01*
X213538847Y-96337476D01*
X213586466Y-96432714D01*
X214300752Y-118467095D02*
X213300752Y-118467095D01*
X213300752Y-118229000D01*
X213348371Y-118086142D01*
X213443609Y-117990904D01*
X213538847Y-117943285D01*
X213729323Y-117895666D01*
X213872181Y-117895666D01*
X214062657Y-117943285D01*
X214157895Y-117990904D01*
X214253133Y-118086142D01*
X214300752Y-118229000D01*
X214300752Y-118467095D01*
X213395990Y-117514714D02*
X213348371Y-117467095D01*
X213300752Y-117371857D01*
X213300752Y-117133761D01*
X213348371Y-117038523D01*
X213395990Y-116990904D01*
X213491228Y-116943285D01*
X213586466Y-116943285D01*
X213729323Y-116990904D01*
X214300752Y-117562333D01*
X214300752Y-116943285D01*
X244081667Y-121134381D02*
X244081667Y-121848667D01*
X244034047Y-121991524D01*
X243938809Y-122086762D01*
X243795952Y-122134381D01*
X243700714Y-122134381D01*
X245081667Y-122134381D02*
X244510238Y-122134381D01*
X244795952Y-122134381D02*
X244795952Y-121134381D01*
X244700714Y-121277238D01*
X244605476Y-121372476D01*
X244510238Y-121420095D01*
X84552381Y-58833333D02*
X85266667Y-58833333D01*
X85409524Y-58880953D01*
X85504762Y-58976191D01*
X85552381Y-59119048D01*
X85552381Y-59214286D01*
X84647619Y-58404762D02*
X84600000Y-58357143D01*
X84552381Y-58261905D01*
X84552381Y-58023809D01*
X84600000Y-57928571D01*
X84647619Y-57880952D01*
X84742857Y-57833333D01*
X84838095Y-57833333D01*
X84980952Y-57880952D01*
X85552381Y-58452381D01*
X85552381Y-57833333D01*
X195428619Y-58515238D02*
X195381000Y-58610476D01*
X195285762Y-58705714D01*
X195142905Y-58848571D01*
X195095286Y-58943810D01*
X195095286Y-59039048D01*
X195333381Y-58991429D02*
X195285762Y-59086667D01*
X195190524Y-59181905D01*
X195000048Y-59229524D01*
X194666714Y-59229524D01*
X194476238Y-59181905D01*
X194381000Y-59086667D01*
X194333381Y-58991429D01*
X194333381Y-58800952D01*
X194381000Y-58705714D01*
X194476238Y-58610476D01*
X194666714Y-58562857D01*
X195000048Y-58562857D01*
X195190524Y-58610476D01*
X195285762Y-58705714D01*
X195333381Y-58800952D01*
X195333381Y-58991429D01*
X195333381Y-57610476D02*
X195333381Y-58181905D01*
X195333381Y-57896191D02*
X194333381Y-57896191D01*
X194476238Y-57991429D01*
X194571476Y-58086667D01*
X194619095Y-58181905D01*
X195555619Y-75787238D02*
X195508000Y-75882476D01*
X195412762Y-75977714D01*
X195269905Y-76120571D01*
X195222286Y-76215810D01*
X195222286Y-76311048D01*
X195460381Y-76263429D02*
X195412762Y-76358667D01*
X195317524Y-76453905D01*
X195127048Y-76501524D01*
X194793714Y-76501524D01*
X194603238Y-76453905D01*
X194508000Y-76358667D01*
X194460381Y-76263429D01*
X194460381Y-76072952D01*
X194508000Y-75977714D01*
X194603238Y-75882476D01*
X194793714Y-75834857D01*
X195127048Y-75834857D01*
X195317524Y-75882476D01*
X195412762Y-75977714D01*
X195460381Y-76072952D01*
X195460381Y-76263429D01*
X194555619Y-75453905D02*
X194508000Y-75406286D01*
X194460381Y-75311048D01*
X194460381Y-75072952D01*
X194508000Y-74977714D01*
X194555619Y-74930095D01*
X194650857Y-74882476D01*
X194746095Y-74882476D01*
X194888952Y-74930095D01*
X195460381Y-75501524D01*
X195460381Y-74882476D01*
X171171619Y-58515238D02*
X171124000Y-58610476D01*
X171028762Y-58705714D01*
X170885905Y-58848571D01*
X170838286Y-58943810D01*
X170838286Y-59039048D01*
X171076381Y-58991429D02*
X171028762Y-59086667D01*
X170933524Y-59181905D01*
X170743048Y-59229524D01*
X170409714Y-59229524D01*
X170219238Y-59181905D01*
X170124000Y-59086667D01*
X170076381Y-58991429D01*
X170076381Y-58800952D01*
X170124000Y-58705714D01*
X170219238Y-58610476D01*
X170409714Y-58562857D01*
X170743048Y-58562857D01*
X170933524Y-58610476D01*
X171028762Y-58705714D01*
X171076381Y-58800952D01*
X171076381Y-58991429D01*
X170076381Y-58229524D02*
X170076381Y-57610476D01*
X170457333Y-57943810D01*
X170457333Y-57800952D01*
X170504952Y-57705714D01*
X170552571Y-57658095D01*
X170647810Y-57610476D01*
X170885905Y-57610476D01*
X170981143Y-57658095D01*
X171028762Y-57705714D01*
X171076381Y-57800952D01*
X171076381Y-58086667D01*
X171028762Y-58181905D01*
X170981143Y-58229524D01*
X171171619Y-75787238D02*
X171124000Y-75882476D01*
X171028762Y-75977714D01*
X170885905Y-76120571D01*
X170838286Y-76215810D01*
X170838286Y-76311048D01*
X171076381Y-76263429D02*
X171028762Y-76358667D01*
X170933524Y-76453905D01*
X170743048Y-76501524D01*
X170409714Y-76501524D01*
X170219238Y-76453905D01*
X170124000Y-76358667D01*
X170076381Y-76263429D01*
X170076381Y-76072952D01*
X170124000Y-75977714D01*
X170219238Y-75882476D01*
X170409714Y-75834857D01*
X170743048Y-75834857D01*
X170933524Y-75882476D01*
X171028762Y-75977714D01*
X171076381Y-76072952D01*
X171076381Y-76263429D01*
X170409714Y-74977714D02*
X171076381Y-74977714D01*
X170028762Y-75215810D02*
X170743048Y-75453905D01*
X170743048Y-74834857D01*
X192024095Y-104652381D02*
X192024095Y-105461905D01*
X192071714Y-105557143D01*
X192119333Y-105604762D01*
X192214571Y-105652381D01*
X192405048Y-105652381D01*
X192500286Y-105604762D01*
X192547905Y-105557143D01*
X192595524Y-105461905D01*
X192595524Y-104652381D01*
X193024095Y-104747619D02*
X193071714Y-104700000D01*
X193166952Y-104652381D01*
X193405048Y-104652381D01*
X193500286Y-104700000D01*
X193547905Y-104747619D01*
X193595524Y-104842857D01*
X193595524Y-104938095D01*
X193547905Y-105080952D01*
X192976476Y-105652381D01*
X193595524Y-105652381D01*
X192024095Y-125480381D02*
X192024095Y-126289905D01*
X192071714Y-126385143D01*
X192119333Y-126432762D01*
X192214571Y-126480381D01*
X192405048Y-126480381D01*
X192500286Y-126432762D01*
X192547905Y-126385143D01*
X192595524Y-126289905D01*
X192595524Y-125480381D01*
X192976476Y-125480381D02*
X193595524Y-125480381D01*
X193262190Y-125861333D01*
X193405048Y-125861333D01*
X193500286Y-125908952D01*
X193547905Y-125956571D01*
X193595524Y-126051810D01*
X193595524Y-126289905D01*
X193547905Y-126385143D01*
X193500286Y-126432762D01*
X193405048Y-126480381D01*
X193119333Y-126480381D01*
X193024095Y-126432762D01*
X192976476Y-126385143D01*
X227392381Y-92783905D02*
X228201905Y-92783905D01*
X228297143Y-92736286D01*
X228344762Y-92688667D01*
X228392381Y-92593429D01*
X228392381Y-92402952D01*
X228344762Y-92307714D01*
X228297143Y-92260095D01*
X228201905Y-92212476D01*
X227392381Y-92212476D01*
X227725714Y-91307714D02*
X228392381Y-91307714D01*
X227344762Y-91545810D02*
X228059048Y-91783905D01*
X228059048Y-91164857D01*
X228252381Y-109551905D02*
X229061905Y-109551905D01*
X229157143Y-109504286D01*
X229204762Y-109456667D01*
X229252381Y-109361429D01*
X229252381Y-109170952D01*
X229204762Y-109075714D01*
X229157143Y-109028095D01*
X229061905Y-108980476D01*
X228252381Y-108980476D01*
X228252381Y-108028095D02*
X228252381Y-108504286D01*
X228728571Y-108551905D01*
X228680952Y-108504286D01*
X228633333Y-108409048D01*
X228633333Y-108170952D01*
X228680952Y-108075714D01*
X228728571Y-108028095D01*
X228823810Y-107980476D01*
X229061905Y-107980476D01*
X229157143Y-108028095D01*
X229204762Y-108075714D01*
X229252381Y-108170952D01*
X229252381Y-108409048D01*
X229204762Y-108504286D01*
X229157143Y-108551905D01*
X246406762Y-63720524D02*
X246454381Y-63577667D01*
X246454381Y-63339571D01*
X246406762Y-63244333D01*
X246359143Y-63196714D01*
X246263905Y-63149095D01*
X246168667Y-63149095D01*
X246073429Y-63196714D01*
X246025810Y-63244333D01*
X245978190Y-63339571D01*
X245930571Y-63530048D01*
X245882952Y-63625286D01*
X245835333Y-63672905D01*
X245740095Y-63720524D01*
X245644857Y-63720524D01*
X245549619Y-63672905D01*
X245502000Y-63625286D01*
X245454381Y-63530048D01*
X245454381Y-63291952D01*
X245502000Y-63149095D01*
X245454381Y-62815762D02*
X246454381Y-62577667D01*
X245740095Y-62387190D01*
X246454381Y-62196714D01*
X245454381Y-61958619D01*
X246549619Y-61815762D02*
X246549619Y-61053857D01*
X246454381Y-60815762D02*
X245454381Y-60815762D01*
X245454381Y-60434809D01*
X245502000Y-60339571D01*
X245549619Y-60291952D01*
X245644857Y-60244333D01*
X245787714Y-60244333D01*
X245882952Y-60291952D01*
X245930571Y-60339571D01*
X245978190Y-60434809D01*
X245978190Y-60815762D01*
X245454381Y-59625286D02*
X245454381Y-59434809D01*
X245502000Y-59339571D01*
X245597238Y-59244333D01*
X245787714Y-59196714D01*
X246121048Y-59196714D01*
X246311524Y-59244333D01*
X246406762Y-59339571D01*
X246454381Y-59434809D01*
X246454381Y-59625286D01*
X246406762Y-59720524D01*
X246311524Y-59815762D01*
X246121048Y-59863381D01*
X245787714Y-59863381D01*
X245597238Y-59815762D01*
X245502000Y-59720524D01*
X245454381Y-59625286D01*
X245454381Y-58863381D02*
X246454381Y-58625286D01*
X245740095Y-58434809D01*
X246454381Y-58244333D01*
X245454381Y-58006238D01*
X246454381Y-57101476D02*
X246454381Y-57672905D01*
X246454381Y-57387191D02*
X245454381Y-57387191D01*
X245597238Y-57482429D01*
X245692476Y-57577667D01*
X245740095Y-57672905D01*
X150620667Y-45521571D02*
X150287333Y-45521571D01*
X150287333Y-46045381D02*
X150287333Y-45045381D01*
X150763524Y-45045381D01*
X151668286Y-46045381D02*
X151096857Y-46045381D01*
X151382571Y-46045381D02*
X151382571Y-45045381D01*
X151287333Y-45188238D01*
X151192095Y-45283476D01*
X151096857Y-45331095D01*
X241116667Y-70702381D02*
X241116667Y-71416667D01*
X241069047Y-71559524D01*
X240973809Y-71654762D01*
X240830952Y-71702381D01*
X240735714Y-71702381D01*
X241497619Y-70702381D02*
X242116667Y-70702381D01*
X241783333Y-71083333D01*
X241926191Y-71083333D01*
X242021429Y-71130952D01*
X242069048Y-71178571D01*
X242116667Y-71273810D01*
X242116667Y-71511905D01*
X242069048Y-71607143D01*
X242021429Y-71654762D01*
X241926191Y-71702381D01*
X241640476Y-71702381D01*
X241545238Y-71654762D01*
X241497619Y-71607143D01*
X107023810Y-79797143D02*
X106976191Y-79844762D01*
X106833334Y-79892381D01*
X106738096Y-79892381D01*
X106595238Y-79844762D01*
X106500000Y-79749524D01*
X106452381Y-79654286D01*
X106404762Y-79463810D01*
X106404762Y-79320952D01*
X106452381Y-79130476D01*
X106500000Y-79035238D01*
X106595238Y-78940000D01*
X106738096Y-78892381D01*
X106833334Y-78892381D01*
X106976191Y-78940000D01*
X107023810Y-78987619D01*
X107452381Y-79892381D02*
X107452381Y-79225714D01*
X107452381Y-79416190D02*
X107500000Y-79320952D01*
X107547619Y-79273333D01*
X107642857Y-79225714D01*
X107738096Y-79225714D01*
X108595239Y-79892381D02*
X108023810Y-79892381D01*
X108309524Y-79892381D02*
X108309524Y-78892381D01*
X108214286Y-79035238D01*
X108119048Y-79130476D01*
X108023810Y-79178095D01*
X97993762Y-148106762D02*
X98136619Y-148154381D01*
X98374715Y-148154381D01*
X98469953Y-148106762D01*
X98517572Y-148059143D01*
X98565191Y-147963905D01*
X98565191Y-147868667D01*
X98517572Y-147773429D01*
X98469953Y-147725810D01*
X98374715Y-147678190D01*
X98184238Y-147630571D01*
X98089000Y-147582952D01*
X98041381Y-147535333D01*
X97993762Y-147440095D01*
X97993762Y-147344857D01*
X98041381Y-147249619D01*
X98089000Y-147202000D01*
X98184238Y-147154381D01*
X98422334Y-147154381D01*
X98565191Y-147202000D01*
X98898524Y-147154381D02*
X99136619Y-148154381D01*
X99327096Y-147440095D01*
X99517572Y-148154381D01*
X99755667Y-147154381D01*
X99898524Y-148249619D02*
X100660429Y-148249619D01*
X100898524Y-148154381D02*
X100898524Y-147154381D01*
X101231858Y-147868667D01*
X101565191Y-147154381D01*
X101565191Y-148154381D01*
X101993762Y-147868667D02*
X102469953Y-147868667D01*
X101898524Y-148154381D02*
X102231857Y-147154381D01*
X102565191Y-148154381D01*
X102898524Y-148154381D02*
X102898524Y-147154381D01*
X103469953Y-148154381D01*
X103469953Y-147154381D01*
X103946143Y-147154381D02*
X103946143Y-147963905D01*
X103993762Y-148059143D01*
X104041381Y-148106762D01*
X104136619Y-148154381D01*
X104327096Y-148154381D01*
X104422334Y-148106762D01*
X104469953Y-148059143D01*
X104517572Y-147963905D01*
X104517572Y-147154381D01*
X104946143Y-147868667D02*
X105422334Y-147868667D01*
X104850905Y-148154381D02*
X105184238Y-147154381D01*
X105517572Y-148154381D01*
X106327096Y-148154381D02*
X105850905Y-148154381D01*
X105850905Y-147154381D01*
X107184239Y-148154381D02*
X106612810Y-148154381D01*
X106898524Y-148154381D02*
X106898524Y-147154381D01*
X106803286Y-147297238D01*
X106708048Y-147392476D01*
X106612810Y-147440095D01*
X112865190Y-148106762D02*
X113008047Y-148154381D01*
X113246143Y-148154381D01*
X113341381Y-148106762D01*
X113389000Y-148059143D01*
X113436619Y-147963905D01*
X113436619Y-147868667D01*
X113389000Y-147773429D01*
X113341381Y-147725810D01*
X113246143Y-147678190D01*
X113055666Y-147630571D01*
X112960428Y-147582952D01*
X112912809Y-147535333D01*
X112865190Y-147440095D01*
X112865190Y-147344857D01*
X112912809Y-147249619D01*
X112960428Y-147202000D01*
X113055666Y-147154381D01*
X113293762Y-147154381D01*
X113436619Y-147202000D01*
X113769952Y-147154381D02*
X114008047Y-148154381D01*
X114198524Y-147440095D01*
X114389000Y-148154381D01*
X114627095Y-147154381D01*
X114769952Y-148249619D02*
X115531857Y-148249619D01*
X115960428Y-147154381D02*
X116150905Y-147154381D01*
X116246143Y-147202000D01*
X116341381Y-147297238D01*
X116389000Y-147487714D01*
X116389000Y-147821048D01*
X116341381Y-148011524D01*
X116246143Y-148106762D01*
X116150905Y-148154381D01*
X115960428Y-148154381D01*
X115865190Y-148106762D01*
X115769952Y-148011524D01*
X115722333Y-147821048D01*
X115722333Y-147487714D01*
X115769952Y-147297238D01*
X115865190Y-147202000D01*
X115960428Y-147154381D01*
X116817571Y-148154381D02*
X116817571Y-147154381D01*
X117389000Y-148154381D01*
X117389000Y-147154381D01*
X117627095Y-148249619D02*
X118389000Y-148249619D01*
X118817571Y-147154381D02*
X119008048Y-147154381D01*
X119103286Y-147202000D01*
X119198524Y-147297238D01*
X119246143Y-147487714D01*
X119246143Y-147821048D01*
X119198524Y-148011524D01*
X119103286Y-148106762D01*
X119008048Y-148154381D01*
X118817571Y-148154381D01*
X118722333Y-148106762D01*
X118627095Y-148011524D01*
X118579476Y-147821048D01*
X118579476Y-147487714D01*
X118627095Y-147297238D01*
X118722333Y-147202000D01*
X118817571Y-147154381D01*
X120008048Y-147630571D02*
X119674714Y-147630571D01*
X119674714Y-148154381D02*
X119674714Y-147154381D01*
X120150905Y-147154381D01*
X120865191Y-147630571D02*
X120531857Y-147630571D01*
X120531857Y-148154381D02*
X120531857Y-147154381D01*
X121008048Y-147154381D01*
X121912810Y-148154381D02*
X121341381Y-148154381D01*
X121627095Y-148154381D02*
X121627095Y-147154381D01*
X121531857Y-147297238D01*
X121436619Y-147392476D01*
X121341381Y-147440095D01*
X129065095Y-131013381D02*
X129065095Y-131822905D01*
X129112714Y-131918143D01*
X129160333Y-131965762D01*
X129255571Y-132013381D01*
X129446048Y-132013381D01*
X129541286Y-131965762D01*
X129588905Y-131918143D01*
X129636524Y-131822905D01*
X129636524Y-131013381D01*
X130541286Y-131013381D02*
X130350809Y-131013381D01*
X130255571Y-131061000D01*
X130207952Y-131108619D01*
X130112714Y-131251476D01*
X130065095Y-131441952D01*
X130065095Y-131822905D01*
X130112714Y-131918143D01*
X130160333Y-131965762D01*
X130255571Y-132013381D01*
X130446048Y-132013381D01*
X130541286Y-131965762D01*
X130588905Y-131918143D01*
X130636524Y-131822905D01*
X130636524Y-131584810D01*
X130588905Y-131489571D01*
X130541286Y-131441952D01*
X130446048Y-131394333D01*
X130255571Y-131394333D01*
X130160333Y-131441952D01*
X130112714Y-131489571D01*
X130065095Y-131584810D01*
X223891905Y-145712381D02*
X223891905Y-144712381D01*
X224130000Y-144712381D01*
X224272858Y-144760000D01*
X224368096Y-144855238D01*
X224415715Y-144950476D01*
X224463334Y-145140952D01*
X224463334Y-145283810D01*
X224415715Y-145474286D01*
X224368096Y-145569524D01*
X224272858Y-145664762D01*
X224130000Y-145712381D01*
X223891905Y-145712381D01*
X224796667Y-144712381D02*
X225415715Y-144712381D01*
X225082381Y-145093333D01*
X225225239Y-145093333D01*
X225320477Y-145140952D01*
X225368096Y-145188571D01*
X225415715Y-145283810D01*
X225415715Y-145521905D01*
X225368096Y-145617143D01*
X225320477Y-145664762D01*
X225225239Y-145712381D01*
X224939524Y-145712381D01*
X224844286Y-145664762D01*
X224796667Y-145617143D01*
X231291905Y-145512381D02*
X231291905Y-144512381D01*
X231530000Y-144512381D01*
X231672858Y-144560000D01*
X231768096Y-144655238D01*
X231815715Y-144750476D01*
X231863334Y-144940952D01*
X231863334Y-145083810D01*
X231815715Y-145274286D01*
X231768096Y-145369524D01*
X231672858Y-145464762D01*
X231530000Y-145512381D01*
X231291905Y-145512381D01*
X232720477Y-144845714D02*
X232720477Y-145512381D01*
X232482381Y-144464762D02*
X232244286Y-145179048D01*
X232863334Y-145179048D01*
X219202381Y-142166666D02*
X218726190Y-142500000D01*
X219202381Y-142738095D02*
X218202381Y-142738095D01*
X218202381Y-142357142D01*
X218250000Y-142261904D01*
X218297619Y-142214285D01*
X218392857Y-142166666D01*
X218535714Y-142166666D01*
X218630952Y-142214285D01*
X218678571Y-142261904D01*
X218726190Y-142357142D01*
X218726190Y-142738095D01*
X219202381Y-141214285D02*
X219202381Y-141785714D01*
X219202381Y-141500000D02*
X218202381Y-141500000D01*
X218345238Y-141595238D01*
X218440476Y-141690476D01*
X218488095Y-141785714D01*
X228633334Y-140302381D02*
X228300000Y-139826190D01*
X228061905Y-140302381D02*
X228061905Y-139302381D01*
X228442858Y-139302381D01*
X228538096Y-139350000D01*
X228585715Y-139397619D01*
X228633334Y-139492857D01*
X228633334Y-139635714D01*
X228585715Y-139730952D01*
X228538096Y-139778571D01*
X228442858Y-139826190D01*
X228061905Y-139826190D01*
X229014286Y-139397619D02*
X229061905Y-139350000D01*
X229157143Y-139302381D01*
X229395239Y-139302381D01*
X229490477Y-139350000D01*
X229538096Y-139397619D01*
X229585715Y-139492857D01*
X229585715Y-139588095D01*
X229538096Y-139730952D01*
X228966667Y-140302381D01*
X229585715Y-140302381D01*
M02*
