G04 #@! TF.FileFunction,Legend,Bot*
%FSLAX46Y46*%
G04 Gerber Fmt 4.6, Leading zero omitted, Abs format (unit mm)*
G04 Created by KiCad (PCBNEW 4.0.6) date 10/19/17 19:30:53*
%MOMM*%
%LPD*%
G01*
G04 APERTURE LIST*
%ADD10C,0.100000*%
%ADD11C,0.150000*%
%ADD12C,0.120000*%
G04 APERTURE END LIST*
D10*
D11*
X129628974Y-56446420D02*
G75*
G03X129628974Y-56446420I-391234J0D01*
G01*
X129537460Y-63446660D02*
X129639060Y-63548260D01*
X129639060Y-63548260D02*
X130037840Y-63647320D01*
X130037840Y-63647320D02*
X130538220Y-63548260D01*
X130538220Y-63548260D02*
X130837940Y-63347600D01*
X130837940Y-63347600D02*
X131239260Y-63047880D01*
X131239260Y-63047880D02*
X131338320Y-62547500D01*
X131338320Y-62547500D02*
X131239260Y-62047120D01*
X131239260Y-62047120D02*
X130937000Y-61645800D01*
X130937000Y-61645800D02*
X130837940Y-61546740D01*
X130837940Y-61546740D02*
X131239260Y-60947300D01*
X131239260Y-60947300D02*
X131538980Y-60147200D01*
X131538980Y-60147200D02*
X131737100Y-59146440D01*
X131737100Y-59146440D02*
X131737100Y-57947560D01*
X131737100Y-57947560D02*
X131538980Y-57045860D01*
X131538980Y-57045860D02*
X131338320Y-56446420D01*
X131338320Y-56446420D02*
X131137660Y-55946040D01*
X131137660Y-55946040D02*
X130937000Y-55547260D01*
X130937000Y-55547260D02*
X131137660Y-55247540D01*
X131137660Y-55247540D02*
X131338320Y-54648100D01*
X131338320Y-54648100D02*
X131239260Y-54246780D01*
X131239260Y-54246780D02*
X131038600Y-53947060D01*
X131038600Y-53947060D02*
X130837940Y-53647340D01*
X130837940Y-53647340D02*
X130337560Y-53446680D01*
X130337560Y-53446680D02*
X129837180Y-53545740D01*
X129837180Y-53545740D02*
X129438400Y-53746400D01*
X122938540Y-63446660D02*
X122638820Y-63548260D01*
X122638820Y-63548260D02*
X122237500Y-63647320D01*
X122237500Y-63647320D02*
X121937780Y-63548260D01*
X121937780Y-63548260D02*
X121539000Y-63347600D01*
X121539000Y-63347600D02*
X121338340Y-63047880D01*
X121338340Y-63047880D02*
X121137680Y-62748160D01*
X121137680Y-62748160D02*
X121137680Y-62445900D01*
X121137680Y-62445900D02*
X121236740Y-62146180D01*
X121236740Y-62146180D02*
X121338340Y-61846460D01*
X121338340Y-61846460D02*
X121638060Y-61546740D01*
X121638060Y-61546740D02*
X121338340Y-61147960D01*
X121338340Y-61147960D02*
X121137680Y-60746640D01*
X121137680Y-60746640D02*
X120937020Y-60246260D01*
X120937020Y-60246260D02*
X120738900Y-59446160D01*
X120738900Y-59446160D02*
X120637300Y-58547000D01*
X120637300Y-58547000D02*
X120738900Y-57746900D01*
X120738900Y-57746900D02*
X120937020Y-56847740D01*
X120937020Y-56847740D02*
X121338340Y-55946040D01*
X121338340Y-55946040D02*
X121539000Y-55547260D01*
X121539000Y-55547260D02*
X121338340Y-55247540D01*
X121338340Y-55247540D02*
X121137680Y-54846220D01*
X121137680Y-54846220D02*
X121236740Y-54345840D01*
X121236740Y-54345840D02*
X121437400Y-53947060D01*
X121437400Y-53947060D02*
X121737120Y-53647340D01*
X121737120Y-53647340D02*
X122237500Y-53446680D01*
X122237500Y-53446680D02*
X122737880Y-53545740D01*
X122737880Y-53545740D02*
X123037600Y-53746400D01*
X129537460Y-52346860D02*
X132438140Y-52346860D01*
X132438140Y-52346860D02*
X132438140Y-64747140D01*
X132438140Y-64747140D02*
X129537460Y-64747140D01*
X120037860Y-64747140D02*
X120037860Y-52346860D01*
X120037860Y-52346860D02*
X122938540Y-52346860D01*
X120037860Y-64747140D02*
X122938540Y-64747140D01*
D12*
X229739000Y-128000000D02*
X229739000Y-126000000D01*
X231779000Y-126000000D02*
X231779000Y-128000000D01*
X233676000Y-128000000D02*
X233676000Y-126000000D01*
X235716000Y-126000000D02*
X235716000Y-128000000D01*
X236204000Y-84918000D02*
X234204000Y-84918000D01*
X234204000Y-82878000D02*
X236204000Y-82878000D01*
X235696000Y-100539000D02*
X233696000Y-100539000D01*
X233696000Y-98499000D02*
X235696000Y-98499000D01*
X235000000Y-118020000D02*
X233000000Y-118020000D01*
X233000000Y-115980000D02*
X235000000Y-115980000D01*
X204212000Y-92440000D02*
X204212000Y-90440000D01*
X206252000Y-90440000D02*
X206252000Y-92440000D01*
X204212000Y-113014000D02*
X204212000Y-111014000D01*
X206252000Y-111014000D02*
X206252000Y-113014000D01*
D11*
X117133714Y-56808905D02*
X117800381Y-56808905D01*
X116752762Y-56570809D02*
X117467048Y-56332714D01*
X117467048Y-56951762D01*
X116800381Y-57237476D02*
X116800381Y-57904143D01*
X117800381Y-57475571D01*
X117133714Y-58713667D02*
X117800381Y-58713667D01*
X117133714Y-58285095D02*
X117657524Y-58285095D01*
X117752762Y-58332714D01*
X117800381Y-58427952D01*
X117800381Y-58570810D01*
X117752762Y-58666048D01*
X117705143Y-58713667D01*
X117800381Y-59189857D02*
X116800381Y-59189857D01*
X117276571Y-59189857D02*
X117276571Y-59761286D01*
X117800381Y-59761286D02*
X116800381Y-59761286D01*
X117800381Y-60761286D02*
X117800381Y-60189857D01*
X117800381Y-60475571D02*
X116800381Y-60475571D01*
X116943238Y-60380333D01*
X117038476Y-60285095D01*
X117086095Y-60189857D01*
X229366143Y-126833334D02*
X229413762Y-126785715D01*
X229461381Y-126642858D01*
X229461381Y-126547620D01*
X229413762Y-126404762D01*
X229318524Y-126309524D01*
X229223286Y-126261905D01*
X229032810Y-126214286D01*
X228889952Y-126214286D01*
X228699476Y-126261905D01*
X228604238Y-126309524D01*
X228509000Y-126404762D01*
X228461381Y-126547620D01*
X228461381Y-126642858D01*
X228509000Y-126785715D01*
X228556619Y-126833334D01*
X229461381Y-127785715D02*
X229461381Y-127214286D01*
X229461381Y-127500000D02*
X228461381Y-127500000D01*
X228604238Y-127404762D01*
X228699476Y-127309524D01*
X228747095Y-127214286D01*
X233303143Y-126833334D02*
X233350762Y-126785715D01*
X233398381Y-126642858D01*
X233398381Y-126547620D01*
X233350762Y-126404762D01*
X233255524Y-126309524D01*
X233160286Y-126261905D01*
X232969810Y-126214286D01*
X232826952Y-126214286D01*
X232636476Y-126261905D01*
X232541238Y-126309524D01*
X232446000Y-126404762D01*
X232398381Y-126547620D01*
X232398381Y-126642858D01*
X232446000Y-126785715D01*
X232493619Y-126833334D01*
X232493619Y-127214286D02*
X232446000Y-127261905D01*
X232398381Y-127357143D01*
X232398381Y-127595239D01*
X232446000Y-127690477D01*
X232493619Y-127738096D01*
X232588857Y-127785715D01*
X232684095Y-127785715D01*
X232826952Y-127738096D01*
X233398381Y-127166667D01*
X233398381Y-127785715D01*
X235370666Y-86005143D02*
X235418285Y-86052762D01*
X235561142Y-86100381D01*
X235656380Y-86100381D01*
X235799238Y-86052762D01*
X235894476Y-85957524D01*
X235942095Y-85862286D01*
X235989714Y-85671810D01*
X235989714Y-85528952D01*
X235942095Y-85338476D01*
X235894476Y-85243238D01*
X235799238Y-85148000D01*
X235656380Y-85100381D01*
X235561142Y-85100381D01*
X235418285Y-85148000D01*
X235370666Y-85195619D01*
X234465904Y-85100381D02*
X234942095Y-85100381D01*
X234989714Y-85576571D01*
X234942095Y-85528952D01*
X234846857Y-85481333D01*
X234608761Y-85481333D01*
X234513523Y-85528952D01*
X234465904Y-85576571D01*
X234418285Y-85671810D01*
X234418285Y-85909905D01*
X234465904Y-86005143D01*
X234513523Y-86052762D01*
X234608761Y-86100381D01*
X234846857Y-86100381D01*
X234942095Y-86052762D01*
X234989714Y-86005143D01*
X234862666Y-101626143D02*
X234910285Y-101673762D01*
X235053142Y-101721381D01*
X235148380Y-101721381D01*
X235291238Y-101673762D01*
X235386476Y-101578524D01*
X235434095Y-101483286D01*
X235481714Y-101292810D01*
X235481714Y-101149952D01*
X235434095Y-100959476D01*
X235386476Y-100864238D01*
X235291238Y-100769000D01*
X235148380Y-100721381D01*
X235053142Y-100721381D01*
X234910285Y-100769000D01*
X234862666Y-100816619D01*
X234005523Y-100721381D02*
X234196000Y-100721381D01*
X234291238Y-100769000D01*
X234338857Y-100816619D01*
X234434095Y-100959476D01*
X234481714Y-101149952D01*
X234481714Y-101530905D01*
X234434095Y-101626143D01*
X234386476Y-101673762D01*
X234291238Y-101721381D01*
X234100761Y-101721381D01*
X234005523Y-101673762D01*
X233957904Y-101626143D01*
X233910285Y-101530905D01*
X233910285Y-101292810D01*
X233957904Y-101197571D01*
X234005523Y-101149952D01*
X234100761Y-101102333D01*
X234291238Y-101102333D01*
X234386476Y-101149952D01*
X234434095Y-101197571D01*
X234481714Y-101292810D01*
X234166666Y-119107143D02*
X234214285Y-119154762D01*
X234357142Y-119202381D01*
X234452380Y-119202381D01*
X234595238Y-119154762D01*
X234690476Y-119059524D01*
X234738095Y-118964286D01*
X234785714Y-118773810D01*
X234785714Y-118630952D01*
X234738095Y-118440476D01*
X234690476Y-118345238D01*
X234595238Y-118250000D01*
X234452380Y-118202381D01*
X234357142Y-118202381D01*
X234214285Y-118250000D01*
X234166666Y-118297619D01*
X233833333Y-118202381D02*
X233166666Y-118202381D01*
X233595238Y-119202381D01*
X203839143Y-89630476D02*
X203886762Y-89582857D01*
X203934381Y-89440000D01*
X203934381Y-89344762D01*
X203886762Y-89201904D01*
X203791524Y-89106666D01*
X203696286Y-89059047D01*
X203505810Y-89011428D01*
X203362952Y-89011428D01*
X203172476Y-89059047D01*
X203077238Y-89106666D01*
X202982000Y-89201904D01*
X202934381Y-89344762D01*
X202934381Y-89440000D01*
X202982000Y-89582857D01*
X203029619Y-89630476D01*
X203934381Y-90059047D02*
X202934381Y-90059047D01*
X203315333Y-90059047D02*
X203267714Y-90154285D01*
X203267714Y-90344762D01*
X203315333Y-90440000D01*
X203362952Y-90487619D01*
X203458190Y-90535238D01*
X203743905Y-90535238D01*
X203839143Y-90487619D01*
X203886762Y-90440000D01*
X203934381Y-90344762D01*
X203934381Y-90154285D01*
X203886762Y-90059047D01*
X203934381Y-91106666D02*
X203886762Y-91011428D01*
X203839143Y-90963809D01*
X203743905Y-90916190D01*
X203458190Y-90916190D01*
X203362952Y-90963809D01*
X203315333Y-91011428D01*
X203267714Y-91106666D01*
X203267714Y-91249524D01*
X203315333Y-91344762D01*
X203362952Y-91392381D01*
X203458190Y-91440000D01*
X203743905Y-91440000D01*
X203839143Y-91392381D01*
X203886762Y-91344762D01*
X203934381Y-91249524D01*
X203934381Y-91106666D01*
X203934381Y-92011428D02*
X203886762Y-91916190D01*
X203839143Y-91868571D01*
X203743905Y-91820952D01*
X203458190Y-91820952D01*
X203362952Y-91868571D01*
X203315333Y-91916190D01*
X203267714Y-92011428D01*
X203267714Y-92154286D01*
X203315333Y-92249524D01*
X203362952Y-92297143D01*
X203458190Y-92344762D01*
X203743905Y-92344762D01*
X203839143Y-92297143D01*
X203886762Y-92249524D01*
X203934381Y-92154286D01*
X203934381Y-92011428D01*
X203267714Y-92630476D02*
X203267714Y-93011428D01*
X202934381Y-92773333D02*
X203791524Y-92773333D01*
X203886762Y-92820952D01*
X203934381Y-92916190D01*
X203934381Y-93011428D01*
X203934381Y-93868572D02*
X203934381Y-93297143D01*
X203934381Y-93582857D02*
X202934381Y-93582857D01*
X203077238Y-93487619D01*
X203172476Y-93392381D01*
X203220095Y-93297143D01*
X203839143Y-110204476D02*
X203886762Y-110156857D01*
X203934381Y-110014000D01*
X203934381Y-109918762D01*
X203886762Y-109775904D01*
X203791524Y-109680666D01*
X203696286Y-109633047D01*
X203505810Y-109585428D01*
X203362952Y-109585428D01*
X203172476Y-109633047D01*
X203077238Y-109680666D01*
X202982000Y-109775904D01*
X202934381Y-109918762D01*
X202934381Y-110014000D01*
X202982000Y-110156857D01*
X203029619Y-110204476D01*
X203934381Y-110633047D02*
X202934381Y-110633047D01*
X203315333Y-110633047D02*
X203267714Y-110728285D01*
X203267714Y-110918762D01*
X203315333Y-111014000D01*
X203362952Y-111061619D01*
X203458190Y-111109238D01*
X203743905Y-111109238D01*
X203839143Y-111061619D01*
X203886762Y-111014000D01*
X203934381Y-110918762D01*
X203934381Y-110728285D01*
X203886762Y-110633047D01*
X203934381Y-111680666D02*
X203886762Y-111585428D01*
X203839143Y-111537809D01*
X203743905Y-111490190D01*
X203458190Y-111490190D01*
X203362952Y-111537809D01*
X203315333Y-111585428D01*
X203267714Y-111680666D01*
X203267714Y-111823524D01*
X203315333Y-111918762D01*
X203362952Y-111966381D01*
X203458190Y-112014000D01*
X203743905Y-112014000D01*
X203839143Y-111966381D01*
X203886762Y-111918762D01*
X203934381Y-111823524D01*
X203934381Y-111680666D01*
X203934381Y-112585428D02*
X203886762Y-112490190D01*
X203839143Y-112442571D01*
X203743905Y-112394952D01*
X203458190Y-112394952D01*
X203362952Y-112442571D01*
X203315333Y-112490190D01*
X203267714Y-112585428D01*
X203267714Y-112728286D01*
X203315333Y-112823524D01*
X203362952Y-112871143D01*
X203458190Y-112918762D01*
X203743905Y-112918762D01*
X203839143Y-112871143D01*
X203886762Y-112823524D01*
X203934381Y-112728286D01*
X203934381Y-112585428D01*
X203267714Y-113204476D02*
X203267714Y-113585428D01*
X202934381Y-113347333D02*
X203791524Y-113347333D01*
X203886762Y-113394952D01*
X203934381Y-113490190D01*
X203934381Y-113585428D01*
X203029619Y-113871143D02*
X202982000Y-113918762D01*
X202934381Y-114014000D01*
X202934381Y-114252096D01*
X202982000Y-114347334D01*
X203029619Y-114394953D01*
X203124857Y-114442572D01*
X203220095Y-114442572D01*
X203362952Y-114394953D01*
X203934381Y-113823524D01*
X203934381Y-114442572D01*
M02*
