G04 #@! TF.FileFunction,Copper,L2,Bot,Signal*
%FSLAX46Y46*%
G04 Gerber Fmt 4.6, Leading zero omitted, Abs format (unit mm)*
G04 Created by KiCad (PCBNEW 4.0.6) date 10/19/17 19:30:53*
%MOMM*%
%LPD*%
G01*
G04 APERTURE LIST*
%ADD10C,0.100000*%
%ADD11R,5.400040X2.900680*%
%ADD12R,1.600000X2.000000*%
%ADD13R,2.000000X1.600000*%
%ADD14C,2.400000*%
%ADD15C,2.000000*%
%ADD16R,1.600000X1.600000*%
%ADD17O,1.600000X1.600000*%
%ADD18R,1.700000X1.700000*%
%ADD19O,1.700000X1.700000*%
%ADD20R,2.500000X2.500000*%
%ADD21C,2.500000*%
%ADD22R,1.800000X1.800000*%
%ADD23O,1.800000X1.800000*%
%ADD24C,1.000000*%
%ADD25O,4.000000X2.500000*%
%ADD26R,3.500000X3.500000*%
%ADD27C,1.600000*%
%ADD28R,1.000000X1.000000*%
%ADD29C,1.800000*%
%ADD30C,4.000000*%
%ADD31C,0.800000*%
%ADD32C,0.450000*%
%ADD33C,2.000000*%
G04 APERTURE END LIST*
D10*
D11*
X126238000Y-53596540D03*
X126238000Y-63497460D03*
D12*
X230759000Y-125000000D03*
X230759000Y-129000000D03*
X234696000Y-125000000D03*
X234696000Y-129000000D03*
D13*
X233204000Y-83898000D03*
X237204000Y-83898000D03*
X232696000Y-99519000D03*
X236696000Y-99519000D03*
X232000000Y-117000000D03*
X236000000Y-117000000D03*
D12*
X205232000Y-89440000D03*
X205232000Y-93440000D03*
X205232000Y-110014000D03*
X205232000Y-114014000D03*
D14*
X135763000Y-87630000D03*
X135763000Y-72630000D03*
D15*
X121539000Y-85217000D03*
X121539000Y-75217000D03*
D14*
X100076000Y-69977000D03*
X115076000Y-69977000D03*
D16*
X211582000Y-94107000D03*
D17*
X211582000Y-99187000D03*
D16*
X211582000Y-115189000D03*
D17*
X211582000Y-120269000D03*
D18*
X240030000Y-123952000D03*
D19*
X240030000Y-126492000D03*
X240030000Y-129032000D03*
X240030000Y-131572000D03*
X240030000Y-134112000D03*
X240030000Y-136652000D03*
D20*
X91000000Y-56000000D03*
D21*
X91000000Y-61000000D03*
D22*
X198501000Y-60960000D03*
D23*
X198501000Y-58420000D03*
X198501000Y-55880000D03*
D22*
X198628000Y-78232000D03*
D23*
X198628000Y-75692000D03*
X198628000Y-73152000D03*
D22*
X174244000Y-60960000D03*
D23*
X174244000Y-58420000D03*
X174244000Y-55880000D03*
D22*
X174244000Y-78232000D03*
D23*
X174244000Y-75692000D03*
X174244000Y-73152000D03*
D16*
X196596000Y-102870000D03*
D17*
X188976000Y-87630000D03*
X196596000Y-100330000D03*
X188976000Y-90170000D03*
X196596000Y-97790000D03*
X188976000Y-92710000D03*
X196596000Y-95250000D03*
X188976000Y-95250000D03*
X196596000Y-92710000D03*
X188976000Y-97790000D03*
X196596000Y-90170000D03*
X188976000Y-100330000D03*
X196596000Y-87630000D03*
X188976000Y-102870000D03*
D16*
X196596000Y-123698000D03*
D17*
X188976000Y-108458000D03*
X196596000Y-121158000D03*
X188976000Y-110998000D03*
X196596000Y-118618000D03*
X188976000Y-113538000D03*
X196596000Y-116078000D03*
X188976000Y-116078000D03*
X196596000Y-113538000D03*
X188976000Y-118618000D03*
X196596000Y-110998000D03*
X188976000Y-121158000D03*
X196596000Y-108458000D03*
X188976000Y-123698000D03*
D24*
X231140000Y-89232000D03*
X231140000Y-91772000D03*
X231140000Y-94312000D03*
X232000000Y-106000000D03*
X232000000Y-108540000D03*
X232000000Y-111080000D03*
D21*
X230000000Y-66000000D03*
X230000000Y-61300000D03*
X230000000Y-56600000D03*
X242700000Y-63840000D03*
X242700000Y-58760000D03*
D25*
X161954000Y-53213000D03*
X139954000Y-53213000D03*
D26*
X233000000Y-77000000D03*
X239000000Y-77000000D03*
X236000000Y-72300000D03*
D27*
X105000000Y-82000000D03*
X110000000Y-82000000D03*
D21*
X97000000Y-131700000D03*
X101700000Y-131700000D03*
X106400000Y-131700000D03*
X99160000Y-144400000D03*
X104240000Y-144400000D03*
X111800000Y-131700000D03*
X116500000Y-131700000D03*
X121200000Y-131700000D03*
X113960000Y-144400000D03*
X119040000Y-144400000D03*
D28*
X129700000Y-126100000D03*
D24*
X131700000Y-126100000D03*
X133700000Y-126100000D03*
X135700000Y-126100000D03*
X137700000Y-126100000D03*
X139700000Y-126100000D03*
X141700000Y-126100000D03*
X143700000Y-126100000D03*
X145700000Y-126100000D03*
X147700000Y-126100000D03*
X147700000Y-104100000D03*
X145700000Y-104100000D03*
X143700000Y-104100000D03*
X141700000Y-104100000D03*
X139700000Y-104100000D03*
X137700000Y-104100000D03*
X135700000Y-104100000D03*
X133700000Y-104100000D03*
X131700000Y-104100000D03*
X129700000Y-104100000D03*
D22*
X225900000Y-142300000D03*
D29*
X223360000Y-142300000D03*
D22*
X233300000Y-142100000D03*
D29*
X230760000Y-142100000D03*
D21*
X214000000Y-143500000D03*
X217805000Y-125730000D03*
X207000000Y-144500000D03*
X205994000Y-128016000D03*
X201676000Y-128524000D03*
X201676000Y-114046000D03*
X200660000Y-102870000D03*
X204724000Y-105918000D03*
X190500000Y-129286000D03*
X132500000Y-136100000D03*
X128700000Y-141800000D03*
X181610000Y-118618000D03*
X181610000Y-94742000D03*
X179324000Y-113538000D03*
X179324000Y-100330000D03*
X140100000Y-137500000D03*
X201422000Y-93440000D03*
X200914000Y-85852000D03*
X102000000Y-121000000D03*
X116500000Y-126800000D03*
D30*
X126238000Y-53596540D02*
X126238000Y-52070000D01*
X136525000Y-49784000D02*
X139954000Y-53213000D01*
X128524000Y-49784000D02*
X136525000Y-49784000D01*
X126238000Y-52070000D02*
X128524000Y-49784000D01*
X126238000Y-63497460D02*
X126238000Y-69088000D01*
X126238000Y-69088000D02*
X126238000Y-68580000D01*
X126238000Y-68580000D02*
X126238000Y-69088000D01*
X121539000Y-75217000D02*
X121539000Y-71755000D01*
X132221000Y-69088000D02*
X135763000Y-72630000D01*
X124206000Y-69088000D02*
X126238000Y-69088000D01*
X126238000Y-69088000D02*
X132221000Y-69088000D01*
X121539000Y-71755000D02*
X124206000Y-69088000D01*
D31*
X110900000Y-135100000D02*
X112900000Y-137100000D01*
X129700000Y-130700000D02*
X129700000Y-126100000D01*
X123300000Y-137100000D02*
X129700000Y-130700000D01*
X112900000Y-137100000D02*
X123300000Y-137100000D01*
X97000000Y-131700000D02*
X97000000Y-133900000D01*
X111800000Y-134200000D02*
X111800000Y-131700000D01*
X109100000Y-136900000D02*
X110900000Y-135100000D01*
X110900000Y-135100000D02*
X111800000Y-134200000D01*
X100000000Y-136900000D02*
X109100000Y-136900000D01*
X97000000Y-133900000D02*
X100000000Y-136900000D01*
X97000000Y-131700000D02*
X97000000Y-122000000D01*
X204000000Y-130000000D02*
X198200000Y-135800000D01*
X198200000Y-135800000D02*
X179300000Y-135800000D01*
X179300000Y-135800000D02*
X165200000Y-121700000D01*
X165200000Y-121700000D02*
X165200000Y-118000000D01*
X165200000Y-118000000D02*
X162800000Y-115600000D01*
X204000000Y-130000000D02*
X204000000Y-125730000D01*
X103400000Y-115600000D02*
X162800000Y-115600000D01*
X97000000Y-122000000D02*
X103400000Y-115600000D01*
D32*
X217805000Y-142195000D02*
X216000000Y-144000000D01*
X214500000Y-144000000D02*
X216000000Y-144000000D01*
X214000000Y-143500000D02*
X214500000Y-144000000D01*
X217805000Y-140208000D02*
X217805000Y-142000000D01*
X217805000Y-142000000D02*
X217805000Y-142195000D01*
D31*
X217805000Y-140000000D02*
X217805000Y-140208000D01*
X217805000Y-140000000D02*
X217805000Y-139500000D01*
X217805000Y-139500000D02*
X217805000Y-139000000D01*
X217805000Y-139000000D02*
X217805000Y-125730000D01*
X230759000Y-125000000D02*
X230759000Y-122141000D01*
X232000000Y-120900000D02*
X232000000Y-117000000D01*
X230759000Y-122141000D02*
X232000000Y-120900000D01*
X234696000Y-125000000D02*
X238538000Y-125000000D01*
X238538000Y-125000000D02*
X240030000Y-126492000D01*
X230759000Y-125000000D02*
X234696000Y-125000000D01*
X217805000Y-125730000D02*
X220270000Y-125730000D01*
X220270000Y-125730000D02*
X229000000Y-117000000D01*
X229000000Y-117000000D02*
X232000000Y-117000000D01*
D33*
X232000000Y-111080000D02*
X232000000Y-117000000D01*
D31*
X188976000Y-110998000D02*
X177292000Y-110998000D01*
X187579000Y-126619000D02*
X183769000Y-126619000D01*
X199009000Y-126619000D02*
X187579000Y-126619000D01*
X199898000Y-125730000D02*
X199009000Y-126619000D01*
X217805000Y-125730000D02*
X204000000Y-125730000D01*
X204000000Y-125730000D02*
X199898000Y-125730000D01*
X179832000Y-90170000D02*
X188976000Y-90170000D01*
X177292000Y-92710000D02*
X179832000Y-90170000D01*
X177292000Y-120142000D02*
X177292000Y-110998000D01*
X177292000Y-110998000D02*
X177292000Y-92710000D01*
X183769000Y-126619000D02*
X177292000Y-120142000D01*
X225900000Y-142300000D02*
X225900000Y-145400000D01*
X225900000Y-145400000D02*
X225900000Y-145200000D01*
X225900000Y-145200000D02*
X225900000Y-145400000D01*
X233300000Y-142100000D02*
X233300000Y-145400000D01*
X233300000Y-145400000D02*
X233300000Y-145300000D01*
X233300000Y-145300000D02*
X233300000Y-145400000D01*
X121200000Y-131700000D02*
X121200000Y-127300000D01*
X118100000Y-124200000D02*
X106400000Y-124200000D01*
X121200000Y-127300000D02*
X118100000Y-124200000D01*
X147700000Y-126100000D02*
X147700000Y-117800000D01*
X147700000Y-117800000D02*
X147700000Y-118000000D01*
X147700000Y-118000000D02*
X147700000Y-117800000D01*
X106400000Y-131700000D02*
X106400000Y-124200000D01*
X106400000Y-124200000D02*
X106400000Y-121000000D01*
X204800000Y-131700000D02*
X198700000Y-137800000D01*
X198700000Y-137800000D02*
X178700000Y-137800000D01*
X178700000Y-137800000D02*
X163600000Y-122700000D01*
X163600000Y-122700000D02*
X163600000Y-118800000D01*
X163600000Y-118800000D02*
X162600000Y-117800000D01*
X204800000Y-131700000D02*
X205994000Y-131700000D01*
X109600000Y-117800000D02*
X147700000Y-117800000D01*
X147700000Y-117800000D02*
X162600000Y-117800000D01*
X106400000Y-121000000D02*
X109600000Y-117800000D01*
X207350000Y-144850000D02*
X207000000Y-144500000D01*
X205994000Y-141000000D02*
X206000000Y-141000000D01*
X206000000Y-141000000D02*
X205994000Y-141000000D01*
X243000000Y-128000000D02*
X243000000Y-139000000D01*
X241500000Y-140500000D02*
X243000000Y-139000000D01*
X234696000Y-129000000D02*
X239998000Y-129000000D01*
X239998000Y-129000000D02*
X240030000Y-129032000D01*
X230759000Y-129000000D02*
X234696000Y-129000000D01*
D33*
X196596000Y-121158000D02*
X198158000Y-121158000D01*
X225460000Y-108540000D02*
X232000000Y-108540000D01*
X224000000Y-110000000D02*
X225460000Y-108540000D01*
X224000000Y-118400000D02*
X224000000Y-110000000D01*
X219300000Y-123100000D02*
X224000000Y-118400000D01*
X200100000Y-123100000D02*
X219300000Y-123100000D01*
X198158000Y-121158000D02*
X200100000Y-123100000D01*
X198628000Y-73152000D02*
X203848000Y-73152000D01*
D30*
X216400000Y-56600000D02*
X230000000Y-56600000D01*
X213000000Y-60000000D02*
X216400000Y-56600000D01*
X213000000Y-70000000D02*
X213000000Y-60000000D01*
X210000000Y-73000000D02*
X213000000Y-70000000D01*
X204000000Y-73000000D02*
X210000000Y-73000000D01*
X203848000Y-73152000D02*
X204000000Y-73000000D01*
D33*
X242000000Y-118000000D02*
X242000000Y-119000000D01*
D30*
X242000000Y-117000000D02*
X242000000Y-118000000D01*
D33*
X243000000Y-120000000D02*
X243000000Y-128000000D01*
X242000000Y-119000000D02*
X243000000Y-120000000D01*
X241968000Y-129032000D02*
X240030000Y-129032000D01*
X243000000Y-128000000D02*
X241968000Y-129032000D01*
X236000000Y-117000000D02*
X242000000Y-117000000D01*
X242000000Y-117000000D02*
X241000000Y-117000000D01*
X241000000Y-117000000D02*
X242000000Y-117000000D01*
X232000000Y-108540000D02*
X242000000Y-108540000D01*
X242000000Y-108540000D02*
X241460000Y-108000000D01*
X241460000Y-108000000D02*
X241000000Y-108000000D01*
X241000000Y-108000000D02*
X242000000Y-108000000D01*
X236696000Y-99519000D02*
X242000000Y-99519000D01*
X241000000Y-100000000D02*
X242000000Y-100000000D01*
X241519000Y-100000000D02*
X241000000Y-100000000D01*
X242000000Y-99519000D02*
X241519000Y-100000000D01*
X237204000Y-83898000D02*
X242000000Y-83898000D01*
X241000000Y-84000000D02*
X242000000Y-84000000D01*
X241898000Y-84000000D02*
X241000000Y-84000000D01*
X242000000Y-83898000D02*
X241898000Y-84000000D01*
X231140000Y-91772000D02*
X242000000Y-91772000D01*
X242000000Y-91772000D02*
X242000000Y-92000000D01*
D30*
X239000000Y-77000000D02*
X239000000Y-78000000D01*
X239000000Y-78000000D02*
X242000000Y-81000000D01*
X242000000Y-81000000D02*
X242000000Y-84000000D01*
X242000000Y-84000000D02*
X242000000Y-92000000D01*
X242000000Y-92000000D02*
X242000000Y-100000000D01*
X242000000Y-100000000D02*
X242000000Y-108000000D01*
X242000000Y-108000000D02*
X242000000Y-117000000D01*
X236000000Y-72300000D02*
X236000000Y-60000000D01*
X236000000Y-60000000D02*
X232600000Y-56600000D01*
X232600000Y-56600000D02*
X230000000Y-56600000D01*
X239000000Y-77000000D02*
X239000000Y-74000000D01*
X239000000Y-74000000D02*
X237300000Y-72300000D01*
X237300000Y-72300000D02*
X236000000Y-72300000D01*
D33*
X188976000Y-95250000D02*
X191262000Y-95250000D01*
X192786000Y-96774000D02*
X192786000Y-100330000D01*
X191262000Y-95250000D02*
X192786000Y-96774000D01*
X192786000Y-100330000D02*
X193040000Y-100330000D01*
X192786000Y-121158000D02*
X192786000Y-100330000D01*
X193040000Y-100330000D02*
X196596000Y-100330000D01*
X188976000Y-100330000D02*
X193040000Y-100330000D01*
X188976000Y-116078000D02*
X191008000Y-116078000D01*
X192786000Y-121158000D02*
X192786000Y-117856000D01*
X191008000Y-116078000D02*
X192786000Y-117856000D01*
X188976000Y-121158000D02*
X192786000Y-121158000D01*
X192786000Y-121158000D02*
X196596000Y-121158000D01*
D31*
X207350000Y-144850000D02*
X207900000Y-145400000D01*
X239000000Y-140500000D02*
X241500000Y-140500000D01*
X235000000Y-144500000D02*
X237500000Y-142000000D01*
X237500000Y-142000000D02*
X238000000Y-141500000D01*
X238000000Y-141500000D02*
X238500000Y-141000000D01*
X238500000Y-141000000D02*
X239000000Y-140500000D01*
X207000000Y-144500000D02*
X206000000Y-143500000D01*
X234100000Y-145400000D02*
X235000000Y-144500000D01*
X207900000Y-145400000D02*
X225900000Y-145400000D01*
X225900000Y-145400000D02*
X233300000Y-145400000D01*
X233300000Y-145400000D02*
X234100000Y-145400000D01*
X205994000Y-128016000D02*
X205994000Y-131700000D01*
X205994000Y-131700000D02*
X205994000Y-136000000D01*
X205994000Y-136000000D02*
X205994000Y-141000000D01*
X205994000Y-141000000D02*
X205994000Y-143494000D01*
X205994000Y-143494000D02*
X206000000Y-143500000D01*
D33*
X229000000Y-84000000D02*
X233102000Y-84000000D01*
X233102000Y-84000000D02*
X233204000Y-83898000D01*
X231140000Y-89232000D02*
X231140000Y-89140000D01*
X231140000Y-89140000D02*
X229000000Y-87000000D01*
X229000000Y-87000000D02*
X229000000Y-84000000D01*
X229000000Y-84000000D02*
X229000000Y-81000000D01*
X226700000Y-61300000D02*
X230000000Y-61300000D01*
X225000000Y-63000000D02*
X226700000Y-61300000D01*
X225000000Y-77000000D02*
X225000000Y-63000000D01*
X229000000Y-81000000D02*
X225000000Y-77000000D01*
X232696000Y-99519000D02*
X227000000Y-99519000D01*
X227000000Y-99519000D02*
X227000000Y-100000000D01*
X219456000Y-99187000D02*
X227000000Y-99187000D01*
X227000000Y-99187000D02*
X227000000Y-100000000D01*
X231140000Y-94312000D02*
X229688000Y-94312000D01*
X229688000Y-94312000D02*
X227000000Y-97000000D01*
X227000000Y-97000000D02*
X227000000Y-100000000D01*
X230000000Y-106000000D02*
X232000000Y-106000000D01*
X227000000Y-100000000D02*
X227000000Y-103000000D01*
X227000000Y-103000000D02*
X230000000Y-106000000D01*
X218948000Y-99187000D02*
X219456000Y-99187000D01*
X211582000Y-120269000D02*
X216789000Y-120269000D01*
X216789000Y-120269000D02*
X218948000Y-118110000D01*
X218948000Y-118110000D02*
X218948000Y-99187000D01*
X196596000Y-118618000D02*
X200025000Y-118618000D01*
X200025000Y-118618000D02*
X201676000Y-120269000D01*
X201676000Y-120269000D02*
X211582000Y-120269000D01*
X211582000Y-99187000D02*
X218948000Y-99187000D01*
X218948000Y-99187000D02*
X219456000Y-99187000D01*
X196596000Y-97790000D02*
X199771000Y-97790000D01*
X199771000Y-97790000D02*
X201168000Y-99187000D01*
X201168000Y-99187000D02*
X211582000Y-99187000D01*
X205232000Y-89440000D02*
X200882000Y-89440000D01*
X200152000Y-90170000D02*
X196596000Y-90170000D01*
X200882000Y-89440000D02*
X200152000Y-90170000D01*
X211582000Y-94107000D02*
X211582000Y-91440000D01*
X209582000Y-89440000D02*
X205232000Y-89440000D01*
X211582000Y-91440000D02*
X209582000Y-89440000D01*
X196596000Y-110998000D02*
X199390000Y-110998000D01*
X200374000Y-110014000D02*
X205232000Y-110014000D01*
X199390000Y-110998000D02*
X200374000Y-110014000D01*
X211582000Y-115189000D02*
X211582000Y-112014000D01*
X209582000Y-110014000D02*
X205232000Y-110014000D01*
X211582000Y-112014000D02*
X209582000Y-110014000D01*
D30*
X100076000Y-69977000D02*
X100076000Y-65076000D01*
X96000000Y-61000000D02*
X91000000Y-61000000D01*
X100076000Y-65076000D02*
X96000000Y-61000000D01*
D33*
X174244000Y-55880000D02*
X169820000Y-55880000D01*
D30*
X160100000Y-65800000D02*
X160100000Y-75946000D01*
X165900000Y-60000000D02*
X160100000Y-65800000D01*
X165900000Y-59800000D02*
X165900000Y-60000000D01*
D33*
X169820000Y-55880000D02*
X165900000Y-59800000D01*
D30*
X100076000Y-69977000D02*
X100076000Y-78076000D01*
X100076000Y-78076000D02*
X104500000Y-82500000D01*
X104500000Y-82500000D02*
X105000000Y-82000000D01*
X102997000Y-89662000D02*
X102997000Y-84003000D01*
X157226000Y-75946000D02*
X160100000Y-75946000D01*
X160100000Y-75946000D02*
X163703000Y-75946000D01*
X135001000Y-98171000D02*
X157226000Y-75946000D01*
X111506000Y-98171000D02*
X135001000Y-98171000D01*
X102997000Y-89662000D02*
X111506000Y-98171000D01*
D33*
X163957000Y-75692000D02*
X163703000Y-75946000D01*
D30*
X102997000Y-84003000D02*
X105000000Y-82000000D01*
D33*
X169418000Y-121666000D02*
X181102000Y-133350000D01*
X196850000Y-133350000D02*
X201676000Y-128524000D01*
X181102000Y-133350000D02*
X196850000Y-133350000D01*
X169418000Y-118364000D02*
X169545000Y-82169000D01*
X169545000Y-82169000D02*
X169545000Y-75692000D01*
X169418000Y-118364000D02*
X169418000Y-121666000D01*
X201676000Y-114046000D02*
X201676000Y-114014000D01*
X201676000Y-114014000D02*
X201676000Y-114046000D01*
X201676000Y-114046000D02*
X201676000Y-114014000D01*
X196596000Y-113538000D02*
X199898000Y-113538000D01*
X200374000Y-114014000D02*
X201676000Y-114014000D01*
X201676000Y-114014000D02*
X205232000Y-114014000D01*
X199898000Y-113538000D02*
X200374000Y-114014000D01*
X174244000Y-75692000D02*
X169545000Y-75692000D01*
X169545000Y-75692000D02*
X163957000Y-75692000D01*
D30*
X91000000Y-56000000D02*
X108000000Y-56000000D01*
X115076000Y-63076000D02*
X115076000Y-69977000D01*
X108000000Y-56000000D02*
X115076000Y-63076000D01*
X115076000Y-79107000D02*
X115076000Y-84924000D01*
X115076000Y-69977000D02*
X115076000Y-79107000D01*
X115076000Y-84924000D02*
X114000000Y-86000000D01*
X110000000Y-82000000D02*
X114000000Y-86000000D01*
X120756000Y-86000000D02*
X121539000Y-85217000D01*
X114000000Y-86000000D02*
X120756000Y-86000000D01*
X121539000Y-85217000D02*
X121539000Y-87249000D01*
X121539000Y-87249000D02*
X125095000Y-90805000D01*
X125095000Y-90805000D02*
X132588000Y-90805000D01*
X132588000Y-90805000D02*
X135763000Y-87630000D01*
D33*
X196596000Y-87630000D02*
X193675000Y-87630000D01*
X193675000Y-87630000D02*
X188341000Y-82296000D01*
X188341000Y-82296000D02*
X188341000Y-64008000D01*
X188341000Y-64008000D02*
X191389000Y-60960000D01*
X191389000Y-60960000D02*
X198501000Y-60960000D01*
X196596000Y-102870000D02*
X200660000Y-102870000D01*
X204724000Y-105918000D02*
X200660000Y-105918000D01*
X200660000Y-105918000D02*
X198120000Y-108458000D01*
X196596000Y-108458000D02*
X198120000Y-108458000D01*
X190500000Y-129286000D02*
X182626000Y-129286000D01*
X174244000Y-120904000D02*
X174244000Y-78232000D01*
X182626000Y-129286000D02*
X174244000Y-120904000D01*
D31*
X131700000Y-135300000D02*
X131700000Y-131100000D01*
X132500000Y-136100000D02*
X131700000Y-135300000D01*
X131700000Y-126100000D02*
X131700000Y-131100000D01*
X137700000Y-128300000D02*
X137700000Y-126100000D01*
X145800000Y-136400000D02*
X137700000Y-128300000D01*
X145800000Y-139000000D02*
X145800000Y-136400000D01*
X144500000Y-140300000D02*
X145800000Y-139000000D01*
X130200000Y-140300000D02*
X144500000Y-140300000D01*
X128700000Y-141800000D02*
X130200000Y-140300000D01*
X188976000Y-118618000D02*
X181610000Y-118618000D01*
X183642000Y-92710000D02*
X188976000Y-92710000D01*
X181610000Y-94742000D02*
X183642000Y-92710000D01*
X188976000Y-113538000D02*
X179324000Y-113538000D01*
X181864000Y-97790000D02*
X188976000Y-97790000D01*
X179324000Y-100330000D02*
X181864000Y-97790000D01*
X133700000Y-126100000D02*
X133700000Y-128000000D01*
X133700000Y-131100000D02*
X133700000Y-128000000D01*
X140100000Y-137500000D02*
X133700000Y-131100000D01*
D30*
X233000000Y-77000000D02*
X230000000Y-74000000D01*
X230000000Y-74000000D02*
X230000000Y-66000000D01*
X193040000Y-75692000D02*
X193040000Y-69360000D01*
X204978000Y-64022000D02*
X204978000Y-58420000D01*
X202400000Y-66600000D02*
X204978000Y-64022000D01*
X195800000Y-66600000D02*
X202400000Y-66600000D01*
X193040000Y-69360000D02*
X195800000Y-66600000D01*
D33*
X200914000Y-85852000D02*
X200787000Y-85725000D01*
X200787000Y-85725000D02*
X200914000Y-85852000D01*
X196596000Y-92710000D02*
X199644000Y-92710000D01*
X199644000Y-92710000D02*
X200374000Y-93440000D01*
X200374000Y-93440000D02*
X201422000Y-93440000D01*
X201422000Y-93440000D02*
X205232000Y-93440000D01*
X205200000Y-93472000D02*
X205232000Y-93440000D01*
D30*
X204978000Y-58420000D02*
X204978000Y-52578000D01*
X167005000Y-53213000D02*
X161954000Y-53213000D01*
X170434000Y-49784000D02*
X167005000Y-53213000D01*
X202184000Y-49784000D02*
X170434000Y-49784000D01*
X204978000Y-52578000D02*
X202184000Y-49784000D01*
D33*
X198628000Y-75692000D02*
X193040000Y-75692000D01*
X193040000Y-75692000D02*
X193040000Y-75438000D01*
X200914000Y-85852000D02*
X197739000Y-82677000D01*
X197739000Y-82677000D02*
X194564000Y-82677000D01*
X194564000Y-82677000D02*
X193040000Y-81153000D01*
X193040000Y-81153000D02*
X193040000Y-75438000D01*
X204978000Y-58420000D02*
X202438000Y-55880000D01*
X202438000Y-55880000D02*
X198501000Y-55880000D01*
D31*
X101700000Y-131700000D02*
X101700000Y-121300000D01*
X101700000Y-121300000D02*
X102000000Y-121000000D01*
X101700000Y-121300000D02*
X102000000Y-121000000D01*
X116500000Y-126800000D02*
X116500000Y-131700000D01*
M02*
